<svg id="Group_66" data-name="Group 66" xmlns="http://www.w3.org/2000/svg" width="20" height="20" viewBox="0 0 20 20">
  <circle id="Ellipse_2" data-name="Ellipse 2" cx="10" cy="10" r="10" fill="#24262b"/>
  <path id="close_1_" data-name="close (1)" d="M6.2,4.661,9.083,1.777a.815.815,0,0,0,0-1.153L8.7.239a.815.815,0,0,0-1.153,0L4.662,3.123,1.778.239a.815.815,0,0,0-1.153,0L.239.623a.815.815,0,0,0,0,1.153L3.124,4.661.24,7.545A.815.815,0,0,0,.24,8.7l.384.384a.815.815,0,0,0,1.153,0L4.662,6.2,7.545,9.083a.815.815,0,0,0,1.153,0L9.083,8.7a.815.815,0,0,0,0-1.153Zm0,0" transform="translate(5.183 5)" fill="#fff"/>
</svg>
