<svg xmlns="http://www.w3.org/2000/svg" width="67" height="60" viewBox="0 0 67 60"><defs><style>.a{fill:#feeded;}.b,.d,.e{fill:none;}.b{stroke:#000;}.b,.c,.d,.e{stroke-linecap:round;stroke-linejoin:round;stroke-miterlimit:10;}.b,.c{stroke-width:2px;}.c{fill:#ee5050;}.c,.e{stroke:#feeded;}.d{stroke:#ee5050;}.d,.e{stroke-width:3px;}</style></defs><g transform="translate(-920 -1040)"><rect class="a" width="67" height="60" rx="8" transform="translate(920 1040)"/><g transform="translate(930.133 1049)"><path class="b" d="M0,3.867A3.867,3.867,0,1,0,3.867,0,3.869,3.869,0,0,0,0,3.867Z" transform="translate(27.07 7.734)"/><path class="c" d="M27.07,34.8H7.734A7.735,7.735,0,0,1,0,27.07V7.734A7.735,7.735,0,0,1,7.734,0H27.07A7.735,7.735,0,0,1,34.8,7.734V27.07A7.735,7.735,0,0,1,27.07,34.8Z" transform="translate(7.735)"/><path class="d" d="M0,0V19.336a11.6,11.6,0,0,0,11.6,11.6H30.937" transform="translate(3.867 11.601)"/><path class="e" d="M0,13.222,10.737,0,24.272,17.4" transform="translate(8.6 17.402)"/><path class="e" d="M0,3.867A3.867,3.867,0,1,0,3.867,0,3.869,3.869,0,0,0,0,3.867Z" transform="translate(27.07 7.734)"/></g></g></svg>