<?xml version="1.0" standalone="no"?>
<!DOCTYPE svg PUBLIC "-//W3C//DTD SVG 20010904//EN"
 "http://www.w3.org/TR/2001/REC-SVG-20010904/DTD/svg10.dtd">
<svg version="1.0" xmlns="http://www.w3.org/2000/svg"
 width="168.000000pt" height="75.000000pt" viewBox="0 0 168.000000 75.000000"
 preserveAspectRatio="xMidYMid meet">

<g transform="translate(0.000000,75.000000) scale(0.100000,-0.100000)"
fill="#000000" stroke="none">
<path d="M435 445 c-31 -30 -34 -92 -6 -126 23 -29 81 -31 111 -4 28 25 28
107 0 135 -28 28 -75 26 -105 -5z m83 -17 c20 -20 15 -86 -7 -98 -27 -14 -37
-13 -55 6 -18 18 -21 56 -6 85 12 21 50 25 68 7z"/>
<path d="M340 396 c0 -73 -14 -91 -41 -55 -21 28 -34 20 -25 -14 7 -31 43 -41
73 -21 20 13 23 23 23 84 0 56 -3 70 -15 70 -12 0 -15 -14 -15 -64z"/>
<path d="M592 383 l3 -78 57 -3 c53 -3 59 -1 69 22 7 14 8 33 4 43 -5 10 -9
34 -9 53 l-1 35 -63 3 -63 3 3 -78z m96 35 c3 -14 -3 -18 -27 -18 -31 0 -47
13 -36 31 11 16 59 6 63 -13z m8 -60 c7 -11 -21 -38 -40 -38 -22 0 -39 18 -33
34 7 19 62 22 73 4z"/>
<path d="M770 380 c0 -64 3 -80 15 -80 10 0 15 11 15 35 0 33 2 35 35 35 33 0
35 -2 35 -35 0 -24 5 -35 15 -35 12 0 15 16 15 80 0 64 -3 80 -15 80 -10 0
-15 -10 -15 -30 0 -28 -3 -30 -35 -30 -32 0 -35 2 -35 30 0 20 -5 30 -15 30
-12 0 -15 -16 -15 -80z"/>
<path d="M940 391 c0 -79 11 -95 67 -95 49 0 63 23 63 101 0 49 -3 63 -15 63
-12 0 -15 -13 -15 -59 0 -66 -18 -93 -48 -74 -12 7 -18 27 -20 72 -2 45 -7 61
-17 61 -12 0 -15 -15 -15 -69z"/>
<path d="M1110 379 c0 -60 3 -80 13 -77 6 3 14 27 17 54 l5 49 30 -52 c18 -32
37 -53 48 -53 15 0 17 10 17 80 0 63 -3 80 -14 80 -11 0 -16 -15 -18 -52 l-3
-53 -30 52 c-18 32 -37 53 -47 53 -16 0 -18 -11 -18 -81z"/>
<path d="M1260 450 c0 -5 11 -10 25 -10 24 0 25 -2 25 -71 0 -60 2 -70 16 -67
13 2 17 16 18 68 1 63 2 65 29 68 55 7 25 22 -43 22 -40 0 -70 -4 -70 -10z"/>
</g>
</svg>
