<?xml version="1.0" encoding="UTF-8"?>
<svg width="165px" height="126px" viewBox="0 0 165 126" version="1.1" xmlns="http://www.w3.org/2000/svg" xmlns:xlink="http://www.w3.org/1999/xlink">
    <title>Group 17</title>
    <defs>
        <polygon id="path-1" points="37.0118548 12.951472 118.677342 12.951472 156.003037 0.349048129 128.235497 108.951466 15.7819164 108.951466 0.00304609678 3.36636196"></polygon>
        <path d="M44.0118548,10.3340925 L85.5789755,18.8391128 L135.960708,118.934152 C71.0011563,109.016387 30.7032875,96.8924967 15.067102,82.5624817 C-0.569083483,68.2324666 -3.25710212,40.9613002 7.0030461,0.748982463 L44.0118548,10.3340925 Z" id="path-3"></path>
    </defs>
    <g id="Page-1" stroke="none" stroke-width="1" fill="none" fill-rule="evenodd">
        <g id="Group-17">
            <g id="Group-22">
                <g id="Group-13" transform="translate(86.003046, 69.386331) rotate(1.000000) translate(-86.003046, -69.386331) translate(8.003046, 14.886331)">
                    <mask id="mask-2" fill="white">
                        <use xlink:href="#path-1"></use>
                    </mask>
                    <use id="Rectangle" fill-opacity="0.3" fill="#FFFFFF" transform="translate(78.003041, 54.650257) scale(1, -1) translate(-78.003041, -54.650257) " xlink:href="#path-1"></use>
                    <path d="M74.6166383,130.74904 C106.870066,130.74904 133.016635,104.602471 133.016635,72.3490438 C133.016635,40.0956164 106.870066,13.9490473 74.6166383,13.9490473 C42.3632109,13.9490473 16.2166418,40.0956164 16.2166418,72.3490438 C16.2166418,104.602471 42.3632109,130.74904 74.6166383,130.74904 Z" id="Oval" stroke="#979797" stroke-width="12" opacity="0.300000012" stroke-dasharray="31.99999809265137,7.999999523162842" mask="url(#mask-2)" transform="translate(74.616638, 72.349044) rotate(12.000000) translate(-74.616638, -72.349044) "></path>
                </g>
                <g id="Group-13" transform="translate(69.145255, 61.090858) rotate(1.000000) translate(-69.145255, -61.090858) translate(1.145255, 1.590858)">
                    <mask id="mask-4" fill="white">
                        <use xlink:href="#path-3"></use>
                    </mask>
                    <use id="Rectangle" fill-opacity="0" fill="#E84C4C" transform="translate(68.433068, 59.841567) scale(1, -1) translate(-68.433068, -59.841567) " xlink:href="#path-3"></use>
                    <path d="M81.6166383,143.74904 C113.870066,143.74904 140.016635,117.602471 140.016635,85.3490438 C140.016635,53.0956164 113.870066,26.9490473 81.6166383,26.9490473 C49.3632109,26.9490473 23.2166418,53.0956164 23.2166418,85.3490438 C23.2166418,117.602471 49.3632109,143.74904 81.6166383,143.74904 Z" id="Oval" stroke="#F5A623" stroke-width="12" stroke-dasharray="31.99999809265137,7.999999523162842" mask="url(#mask-4)" transform="translate(81.616638, 85.349044) rotate(12.000000) translate(-81.616638, -85.349044) "></path>
                </g>
            </g>
            <path d="M57.428875,80.235379 L57.428875,71.135379 L55.933875,71.135379 L55.933875,80.235379 L57.428875,80.235379 Z M60.383125,80.235379 L60.383125,76.751379 C60.383125,75.425379 61.111125,74.879379 62.034125,74.879379 C62.918125,74.879379 63.490125,75.399379 63.490125,76.387379 L63.490125,80.235379 L64.894125,80.235379 L64.894125,76.244379 C64.894125,74.554379 63.854125,73.566379 62.398125,73.566379 C61.514125,73.566379 60.812125,73.891379 60.383125,74.567379 L60.383125,73.735379 L58.979125,73.735379 L58.979125,80.235379 L60.383125,80.235379 Z M69.850375,80.235379 L69.850375,78.974379 C68.784375,79.026379 68.238375,79.039379 68.238375,78.207379 L68.238375,75.087379 L69.850375,75.087379 L69.850375,73.735379 L68.238375,73.735379 L68.238375,71.915379 L66.834375,72.331379 L66.834375,73.735379 L65.638375,73.735379 L65.638375,75.087379 L66.834375,75.087379 L66.834375,78.207379 C66.834375,79.897379 67.692375,80.495379 69.850375,80.235379 Z M73.857625,80.404379 C75.131625,80.404379 76.106625,79.871379 76.704625,78.987379 L75.547625,78.311379 C75.235625,78.766379 74.650625,79.117379 73.870625,79.117379 C72.830625,79.117379 72.011625,78.597379 71.790625,77.583379 L76.964625,77.583379 C76.990625,77.401379 77.016625,77.193379 77.016625,76.998379 C77.016625,75.126379 75.690625,73.566379 73.753625,73.566379 C71.712625,73.566379 70.321625,75.061379 70.321625,76.985379 C70.321625,78.935379 71.712625,80.404379 73.857625,80.404379 Z M75.599625,76.439379 L71.777625,76.439379 C71.972625,75.464379 72.687625,74.840379 73.740625,74.840379 C74.585625,74.840379 75.404625,75.321379 75.599625,76.439379 Z M79.476875,80.235379 L79.476875,76.959379 C79.476875,75.503379 80.555875,75.074379 81.478875,75.139379 L81.478875,73.618379 C80.659875,73.618379 79.866875,73.943379 79.476875,74.827379 L79.476875,73.735379 L78.072875,73.735379 L78.072875,80.235379 L79.476875,80.235379 Z M85.746125,80.235379 L88.281125,73.735379 L86.747125,73.735379 L84.940125,78.675379 L83.120125,73.735379 L81.586125,73.735379 L84.121125,80.235379 L85.746125,80.235379 Z M89.688375,72.760379 C90.182375,72.760379 90.585375,72.344379 90.585375,71.863379 C90.585375,71.369379 90.182375,70.966379 89.688375,70.966379 C89.194375,70.966379 88.791375,71.369379 88.791375,71.863379 C88.791375,72.344379 89.194375,72.760379 89.688375,72.760379 Z M90.390375,80.235379 L90.390375,73.735379 L88.986375,73.735379 L88.986375,80.235379 L90.390375,80.235379 Z M95.008625,80.404379 C96.282625,80.404379 97.257625,79.871379 97.855625,78.987379 L96.698625,78.311379 C96.386625,78.766379 95.801625,79.117379 95.021625,79.117379 C93.981625,79.117379 93.162625,78.597379 92.941625,77.583379 L98.115625,77.583379 C98.141625,77.401379 98.167625,77.193379 98.167625,76.998379 C98.167625,75.126379 96.841625,73.566379 94.904625,73.566379 C92.863625,73.566379 91.472625,75.061379 91.472625,76.985379 C91.472625,78.935379 92.863625,80.404379 95.008625,80.404379 Z M96.750625,76.439379 L92.928625,76.439379 C93.123625,75.464379 93.838625,74.840379 94.891625,74.840379 C95.736625,74.840379 96.555625,75.321379 96.750625,76.439379 Z M101.797875,80.235379 L103.162875,75.854379 L104.514875,80.235379 L105.892875,80.235379 L107.933875,73.735379 L106.451875,73.735379 L105.177875,78.220379 L103.825875,73.735379 L102.486875,73.735379 L101.121875,78.220379 L99.860875,73.735379 L98.378875,73.735379 L100.419875,80.235379 L101.797875,80.235379 Z M54.276375,96.404379 C55.680375,96.404379 56.811375,95.702379 56.811375,94.402379 C56.811375,91.997379 53.314375,92.712379 53.314375,91.529379 C53.314375,91.061379 53.756375,90.840379 54.263375,90.840379 C54.796375,90.840379 55.251375,91.074379 55.485375,91.581379 L56.668375,90.918379 C56.213375,90.060379 55.329375,89.566379 54.263375,89.566379 C52.937375,89.566379 51.884375,90.333379 51.884375,91.555379 C51.884375,93.882379 55.381375,93.232379 55.381375,94.389379 C55.381375,94.909379 54.900375,95.117379 54.276375,95.117379 C53.561375,95.117379 53.041375,94.766379 52.833375,94.181379 L51.624375,94.883379 C52.040375,95.819379 52.976375,96.404379 54.276375,96.404379 Z M60.766625,96.404379 C62.040625,96.404379 63.145625,95.741379 63.691625,94.714379 L62.482625,94.025379 C62.170625,94.623379 61.533625,95.026379 60.753625,95.026379 C59.609625,95.026379 58.738625,94.155379 58.738625,92.985379 C58.738625,91.815379 59.609625,90.944379 60.753625,90.944379 C61.533625,90.944379 62.170625,91.334379 62.456625,91.945379 L63.665625,91.243379 C63.145625,90.229379 62.040625,89.566379 60.766625,89.566379 C58.803625,89.566379 57.334625,91.048379 57.334625,92.985379 C57.334625,94.909379 58.803625,96.404379 60.766625,96.404379 Z M65.930875,96.235379 L65.930875,92.751379 C65.930875,91.425379 66.658875,90.879379 67.581875,90.879379 C68.465875,90.879379 69.037875,91.399379 69.037875,92.387379 L69.037875,96.235379 L70.441875,96.235379 L70.441875,92.244379 C70.441875,90.554379 69.401875,89.566379 67.945875,89.566379 C67.061875,89.566379 66.359875,89.891379 65.930875,90.567379 L65.930875,87.135379 L64.526875,87.135379 L64.526875,96.235379 L65.930875,96.235379 Z M74.943125,96.404379 C76.217125,96.404379 77.192125,95.871379 77.790125,94.987379 L76.633125,94.311379 C76.321125,94.766379 75.736125,95.117379 74.956125,95.117379 C73.916125,95.117379 73.097125,94.597379 72.876125,93.583379 L78.050125,93.583379 C78.076125,93.401379 78.102125,93.193379 78.102125,92.998379 C78.102125,91.126379 76.776125,89.566379 74.839125,89.566379 C72.798125,89.566379 71.407125,91.061379 71.407125,92.985379 C71.407125,94.935379 72.798125,96.404379 74.943125,96.404379 Z M76.685125,92.439379 L72.863125,92.439379 C73.058125,91.464379 73.773125,90.840379 74.826125,90.840379 C75.671125,90.840379 76.490125,91.321379 76.685125,92.439379 Z M81.992375,96.404379 C83.006375,96.404379 83.773375,95.988379 84.267375,95.299379 L84.267375,96.235379 L85.671375,96.235379 L85.671375,87.135379 L84.267375,87.135379 L84.267375,90.658379 C83.773375,89.982379 83.006375,89.566379 81.992375,89.566379 C80.224375,89.566379 78.755375,91.048379 78.755375,92.985379 C78.755375,94.909379 80.224375,96.404379 81.992375,96.404379 Z M82.213375,95.065379 C81.043375,95.065379 80.159375,94.194379 80.159375,92.985379 C80.159375,91.776379 81.043375,90.905379 82.213375,90.905379 C83.383375,90.905379 84.267375,91.776379 84.267375,92.985379 C84.267375,94.194379 83.383375,95.065379 82.213375,95.065379 Z M89.496625,96.404379 C90.380625,96.404379 91.082625,96.079379 91.511625,95.403379 L91.511625,96.235379 L92.915625,96.235379 L92.915625,89.735379 L91.511625,89.735379 L91.511625,93.219379 C91.511625,94.545379 90.783625,95.091379 89.860625,95.091379 C88.976625,95.091379 88.404625,94.571379 88.404625,93.583379 L88.404625,89.735379 L87.000625,89.735379 L87.000625,93.726379 C87.000625,95.416379 88.040625,96.404379 89.496625,96.404379 Z M95.778875,96.235379 L95.778875,86.745379 L94.374875,86.745379 L94.374875,96.235379 L95.778875,96.235379 Z M100.397125,96.404379 C101.671125,96.404379 102.646125,95.871379 103.244125,94.987379 L102.087125,94.311379 C101.775125,94.766379 101.190125,95.117379 100.410125,95.117379 C99.370125,95.117379 98.551125,94.597379 98.330125,93.583379 L103.504125,93.583379 C103.530125,93.401379 103.556125,93.193379 103.556125,92.998379 C103.556125,91.126379 102.230125,89.566379 100.293125,89.566379 C98.252125,89.566379 96.861125,91.061379 96.861125,92.985379 C96.861125,94.935379 98.252125,96.404379 100.397125,96.404379 Z M102.139125,92.439379 L98.317125,92.439379 C98.512125,91.464379 99.227125,90.840379 100.280125,90.840379 C101.125125,90.840379 101.944125,91.321379 102.139125,92.439379 Z M107.446375,96.404379 C108.460375,96.404379 109.227375,95.988379 109.721375,95.299379 L109.721375,96.235379 L111.125375,96.235379 L111.125375,87.135379 L109.721375,87.135379 L109.721375,90.658379 C109.227375,89.982379 108.460375,89.566379 107.446375,89.566379 C105.678375,89.566379 104.209375,91.048379 104.209375,92.985379 C104.209375,94.909379 105.678375,96.404379 107.446375,96.404379 Z M107.667375,95.065379 C106.497375,95.065379 105.613375,94.194379 105.613375,92.985379 C105.613375,91.776379 106.497375,90.905379 107.667375,90.905379 C108.837375,90.905379 109.721375,91.776379 109.721375,92.985379 C109.721375,94.194379 108.837375,95.065379 107.667375,95.065379 Z" id="Interviewscheduled" fill="#24262B" fill-rule="nonzero"></path>
        </g>
    </g>
</svg>