<?xml version="1.0" encoding="UTF-8"?>
<svg width="165px" height="127px" viewBox="0 0 165 127" version="1.1" xmlns="http://www.w3.org/2000/svg" xmlns:xlink="http://www.w3.org/1999/xlink">
    <title>Group 17</title>
    <defs>
        <polygon id="path-1" points="37.0118548 12.951472 118.677342 12.951472 156.003037 0.349048129 128.235497 108.951466 15.7819164 108.951466 0.00304609678 3.36636196"></polygon>
        <path d="M44.0118548,9.95801167 L85.5789755,18.463032 L79.7410461,119.934152 C52.2612689,109.099 30.7032875,96.5164159 15.067102,82.1864008 C-0.569083484,67.8563858 -3.25710212,40.5852194 7.0030461,0.372901623 L44.0118548,9.95801167 Z" id="path-3"></path>
    </defs>
    <g id="Page-1" stroke="none" stroke-width="1" fill="none" fill-rule="evenodd">
        <g id="Group-17">
            <g id="Group-22">
                <g id="Group-13" transform="translate(86.003046, 70.386331) rotate(1.000000) translate(-86.003046, -70.386331) translate(8.003046, 15.886331)">
                    <mask id="mask-2" fill="white">
                        <use xlink:href="#path-1"></use>
                    </mask>
                    <use id="Rectangle" fill-opacity="0.3" fill="#FFFFFF" transform="translate(78.003041, 54.650257) scale(1, -1) translate(-78.003041, -54.650257) " xlink:href="#path-1"></use>
                    <path d="M74.6166383,130.74904 C106.870066,130.74904 133.016635,104.602471 133.016635,72.3490438 C133.016635,40.0956164 106.870066,13.9490473 74.6166383,13.9490473 C42.3632109,13.9490473 16.2166418,40.0956164 16.2166418,72.3490438 C16.2166418,104.602471 42.3632109,130.74904 74.6166383,130.74904 Z" id="Oval" stroke="#979797" stroke-width="12" opacity="0.300000012" stroke-dasharray="31.99999809265137,7.999999523162842" mask="url(#mask-2)" transform="translate(74.616638, 72.349044) rotate(12.000000) translate(-74.616638, -72.349044) "></path>
                </g>
                <g id="Group-13" transform="translate(44.157788, 61.154624) rotate(1.000000) translate(-44.157788, -61.154624) translate(1.157788, 1.154624)">
                    <mask id="mask-4" fill="white">
                        <use xlink:href="#path-3"></use>
                    </mask>
                    <use id="Rectangle" fill-opacity="0" fill="#E84C4C" transform="translate(43.242202, 60.153527) scale(1, -1) translate(-43.242202, -60.153527) " xlink:href="#path-3"></use>
                    <path d="M81.6166383,144.74904 C113.870066,144.74904 140.016635,118.602471 140.016635,86.3490438 C140.016635,54.0956164 113.870066,27.9490473 81.6166383,27.9490473 C49.3632109,27.9490473 23.2166418,54.0956164 23.2166418,86.3490438 C23.2166418,118.602471 49.3632109,144.74904 81.6166383,144.74904 Z" id="Oval" stroke="#F5A623" stroke-width="12" stroke-dasharray="31.99999809265137,7.999999523162842" mask="url(#mask-4)" transform="translate(81.616638, 86.349044) rotate(12.000000) translate(-81.616638, -86.349044) "></path>
                </g>
            </g>
            <path d="M57.428875,81.235379 L57.428875,72.135379 L55.933875,72.135379 L55.933875,81.235379 L57.428875,81.235379 Z M60.383125,81.235379 L60.383125,77.751379 C60.383125,76.425379 61.111125,75.879379 62.034125,75.879379 C62.918125,75.879379 63.490125,76.399379 63.490125,77.387379 L63.490125,81.235379 L64.894125,81.235379 L64.894125,77.244379 C64.894125,75.554379 63.854125,74.566379 62.398125,74.566379 C61.514125,74.566379 60.812125,74.891379 60.383125,75.567379 L60.383125,74.735379 L58.979125,74.735379 L58.979125,81.235379 L60.383125,81.235379 Z M69.850375,81.235379 L69.850375,79.974379 C68.784375,80.026379 68.238375,80.039379 68.238375,79.207379 L68.238375,76.087379 L69.850375,76.087379 L69.850375,74.735379 L68.238375,74.735379 L68.238375,72.915379 L66.834375,73.331379 L66.834375,74.735379 L65.638375,74.735379 L65.638375,76.087379 L66.834375,76.087379 L66.834375,79.207379 C66.834375,80.897379 67.692375,81.495379 69.850375,81.235379 Z M73.857625,81.404379 C75.131625,81.404379 76.106625,80.871379 76.704625,79.987379 L75.547625,79.311379 C75.235625,79.766379 74.650625,80.117379 73.870625,80.117379 C72.830625,80.117379 72.011625,79.597379 71.790625,78.583379 L76.964625,78.583379 C76.990625,78.401379 77.016625,78.193379 77.016625,77.998379 C77.016625,76.126379 75.690625,74.566379 73.753625,74.566379 C71.712625,74.566379 70.321625,76.061379 70.321625,77.985379 C70.321625,79.935379 71.712625,81.404379 73.857625,81.404379 Z M75.599625,77.439379 L71.777625,77.439379 C71.972625,76.464379 72.687625,75.840379 73.740625,75.840379 C74.585625,75.840379 75.404625,76.321379 75.599625,77.439379 Z M79.476875,81.235379 L79.476875,77.959379 C79.476875,76.503379 80.555875,76.074379 81.478875,76.139379 L81.478875,74.618379 C80.659875,74.618379 79.866875,74.943379 79.476875,75.827379 L79.476875,74.735379 L78.072875,74.735379 L78.072875,81.235379 L79.476875,81.235379 Z M85.746125,81.235379 L88.281125,74.735379 L86.747125,74.735379 L84.940125,79.675379 L83.120125,74.735379 L81.586125,74.735379 L84.121125,81.235379 L85.746125,81.235379 Z M89.688375,73.760379 C90.182375,73.760379 90.585375,73.344379 90.585375,72.863379 C90.585375,72.369379 90.182375,71.966379 89.688375,71.966379 C89.194375,71.966379 88.791375,72.369379 88.791375,72.863379 C88.791375,73.344379 89.194375,73.760379 89.688375,73.760379 Z M90.390375,81.235379 L90.390375,74.735379 L88.986375,74.735379 L88.986375,81.235379 L90.390375,81.235379 Z M95.008625,81.404379 C96.282625,81.404379 97.257625,80.871379 97.855625,79.987379 L96.698625,79.311379 C96.386625,79.766379 95.801625,80.117379 95.021625,80.117379 C93.981625,80.117379 93.162625,79.597379 92.941625,78.583379 L98.115625,78.583379 C98.141625,78.401379 98.167625,78.193379 98.167625,77.998379 C98.167625,76.126379 96.841625,74.566379 94.904625,74.566379 C92.863625,74.566379 91.472625,76.061379 91.472625,77.985379 C91.472625,79.935379 92.863625,81.404379 95.008625,81.404379 Z M96.750625,77.439379 L92.928625,77.439379 C93.123625,76.464379 93.838625,75.840379 94.891625,75.840379 C95.736625,75.840379 96.555625,76.321379 96.750625,77.439379 Z M101.797875,81.235379 L103.162875,76.854379 L104.514875,81.235379 L105.892875,81.235379 L107.933875,74.735379 L106.451875,74.735379 L105.177875,79.220379 L103.825875,74.735379 L102.486875,74.735379 L101.121875,79.220379 L99.860875,74.735379 L98.378875,74.735379 L100.419875,81.235379 L101.797875,81.235379 Z M59.343125,99.835379 L59.343125,96.312379 C59.837125,96.988379 60.604125,97.404379 61.618125,97.404379 C63.386125,97.404379 64.855125,95.922379 64.855125,93.985379 C64.855125,92.061379 63.386125,90.566379 61.618125,90.566379 C60.604125,90.566379 59.837125,90.982379 59.343125,91.671379 L59.343125,90.735379 L57.939125,90.735379 L57.939125,99.835379 L59.343125,99.835379 Z M61.397125,96.065379 C60.227125,96.065379 59.343125,95.194379 59.343125,93.985379 C59.343125,92.776379 60.227125,91.905379 61.397125,91.905379 C62.567125,91.905379 63.451125,92.776379 63.451125,93.985379 C63.451125,95.194379 62.567125,96.065379 61.397125,96.065379 Z M69.122375,97.404379 C70.396375,97.404379 71.371375,96.871379 71.969375,95.987379 L70.812375,95.311379 C70.500375,95.766379 69.915375,96.117379 69.135375,96.117379 C68.095375,96.117379 67.276375,95.597379 67.055375,94.583379 L72.229375,94.583379 C72.255375,94.401379 72.281375,94.193379 72.281375,93.998379 C72.281375,92.126379 70.955375,90.566379 69.018375,90.566379 C66.977375,90.566379 65.586375,92.061379 65.586375,93.985379 C65.586375,95.935379 66.977375,97.404379 69.122375,97.404379 Z M70.864375,93.439379 L67.042375,93.439379 C67.237375,92.464379 67.952375,91.840379 69.005375,91.840379 C69.850375,91.840379 70.669375,92.321379 70.864375,93.439379 Z M74.741625,97.235379 L74.741625,93.751379 C74.741625,92.425379 75.469625,91.879379 76.392625,91.879379 C77.276625,91.879379 77.848625,92.399379 77.848625,93.387379 L77.848625,97.235379 L79.252625,97.235379 L79.252625,93.244379 C79.252625,91.554379 78.212625,90.566379 76.756625,90.566379 C75.872625,90.566379 75.170625,90.891379 74.741625,91.567379 L74.741625,90.735379 L73.337625,90.735379 L73.337625,97.235379 L74.741625,97.235379 Z M83.454875,97.404379 C84.468875,97.404379 85.235875,96.988379 85.729875,96.299379 L85.729875,97.235379 L87.133875,97.235379 L87.133875,88.135379 L85.729875,88.135379 L85.729875,91.658379 C85.235875,90.982379 84.468875,90.566379 83.454875,90.566379 C81.686875,90.566379 80.217875,92.048379 80.217875,93.985379 C80.217875,95.909379 81.686875,97.404379 83.454875,97.404379 Z M83.675875,96.065379 C82.505875,96.065379 81.621875,95.194379 81.621875,93.985379 C81.621875,92.776379 82.505875,91.905379 83.675875,91.905379 C84.845875,91.905379 85.729875,92.776379 85.729875,93.985379 C85.729875,95.194379 84.845875,96.065379 83.675875,96.065379 Z M89.295125,89.760379 C89.789125,89.760379 90.192125,89.344379 90.192125,88.863379 C90.192125,88.369379 89.789125,87.966379 89.295125,87.966379 C88.801125,87.966379 88.398125,88.369379 88.398125,88.863379 C88.398125,89.344379 88.801125,89.760379 89.295125,89.760379 Z M89.997125,97.235379 L89.997125,90.735379 L88.593125,90.735379 L88.593125,97.235379 L89.997125,97.235379 Z M92.847375,97.235379 L92.847375,93.751379 C92.847375,92.425379 93.575375,91.879379 94.498375,91.879379 C95.382375,91.879379 95.954375,92.399379 95.954375,93.387379 L95.954375,97.235379 L97.358375,97.235379 L97.358375,93.244379 C97.358375,91.554379 96.318375,90.566379 94.862375,90.566379 C93.978375,90.566379 93.276375,90.891379 92.847375,91.567379 L92.847375,90.735379 L91.443375,90.735379 L91.443375,97.235379 L92.847375,97.235379 Z M101.898625,100.004379 C103.601625,100.004379 105.239625,99.029379 105.239625,96.936379 L105.239625,90.735379 L103.861625,90.735379 L103.861625,91.697379 C103.367625,90.995379 102.600625,90.566379 101.599625,90.566379 C99.766625,90.566379 98.323625,92.061379 98.323625,93.920379 C98.323625,95.779379 99.766625,97.274379 101.599625,97.274379 C102.600625,97.274379 103.367625,96.845379 103.861625,96.143379 L103.861625,96.936379 C103.861625,98.067379 103.133625,98.730379 101.924625,98.730379 C100.793625,98.730379 100.312625,98.288379 100.026625,97.729379 L98.817625,98.431379 C99.363625,99.471379 100.468625,100.004379 101.898625,100.004379 Z M101.794625,95.961379 C100.611625,95.961379 99.727625,95.090379 99.727625,93.920379 C99.727625,92.750379 100.611625,91.879379 101.794625,91.879379 C102.977625,91.879379 103.861625,92.750379 103.861625,93.920379 C103.861625,95.090379 102.977625,95.961379 101.794625,95.961379 Z" id="Interviewpending" fill="#24262B" fill-rule="nonzero"></path>
        </g>
    </g>
</svg>