<svg xmlns="http://www.w3.org/2000/svg" width="24" height="24" viewBox="0 0 24 24"><defs><style>.a{fill:#ee5050;}</style></defs><g transform="translate(-0.47 -1)"><path class="a" d="M2.241,21.759a7.652,7.652,0,0,1,0-10.822L5.531,7.648,7.652,9.769,4.363,13.058a4.652,4.652,0,0,0,6.579,6.579l3.288-3.289,2.121,2.121-3.289,3.289a7.65,7.65,0,0,1-10.82,0Zm5.2-5.2a1.5,1.5,0,0,1,0-2.121l7-7a1.5,1.5,0,1,1,2.121,2.121l-7,7a1.5,1.5,0,0,1-2.121,0Zm8.91-2.333,3.289-3.289a4.652,4.652,0,0,0-6.579-6.579L9.774,7.648,7.652,5.526l3.289-3.289a7.652,7.652,0,0,1,10.82,10.822l-3.289,3.289Z" transform="translate(0.47 1)"/></g></svg>