<?xml version="1.0" encoding="UTF-8"?>
<svg width="169px" height="114px" viewBox="0 0 169 114" version="1.1" xmlns="http://www.w3.org/2000/svg" xmlns:xlink="http://www.w3.org/1999/xlink">
    <title>Group 14</title>
    <defs>
        <polygon id="path-1" points="37.0118548 12.951472 118.677342 12.951472 156.003037 0.349048129 128.235497 108.951466 15.7819164 108.951466 0.00304609678 3.36636196"></polygon>
        <polygon id="path-3" points="48.0118548 10.476289 89.5789755 18.9813094 0.5802493 58.9341525 11.0030461 0.891179"></polygon>
    </defs>
    <g id="Page-1" stroke="none" stroke-width="1" fill="none" fill-rule="evenodd">
        <g id="4.-Applied-jobs-page" transform="translate(-1117.000000, -216.000000)">
            <g id="Group-32" transform="translate(436.000000, 199.000000)">
                <g id="Group-27">
                    <g id="Group-25" transform="translate(650.000000, 17.764621)">
                        <g id="Group-26">
                            <g id="Group-14" transform="translate(31.000000, 0.000000)">
                                <g id="Group-22">
                                    <g id="Group-13" transform="translate(90.003046, 56.386331) rotate(1.000000) translate(-90.003046, -56.386331) translate(12.003046, 1.886331)">
                                        <mask id="mask-2" fill="white">
                                            <use xlink:href="#path-1"></use>
                                        </mask>
                                        <use id="Rectangle" fill-opacity="0.3" fill="#FFFFFF" transform="translate(78.003041, 54.650257) scale(1, -1) translate(-78.003041, -54.650257) " xlink:href="#path-1"></use>
                                        <path d="M74.6166383,130.74904 C106.870066,130.74904 133.016635,104.602471 133.016635,72.3490438 C133.016635,40.0956164 106.870066,13.9490473 74.6166383,13.9490473 C42.3632109,13.9490473 16.2166418,40.0956164 16.2166418,72.3490438 C16.2166418,104.602471 42.3632109,130.74904 74.6166383,130.74904 Z" id="Oval" stroke="#979797" stroke-width="12" opacity="0.300000012" stroke-dasharray="31.99999809265137,7.999999523162842" mask="url(#mask-2)" transform="translate(74.616638, 72.349044) rotate(12.000000) translate(-74.616638, -72.349044) "></path>
                                    </g>
                                    <g id="Group-13" transform="translate(45.625795, 77.615074) rotate(1.000000) translate(-45.625795, -77.615074) translate(0.625795, 48.115074)">
                                        <mask id="mask-4" fill="white">
                                            <use xlink:href="#path-3"></use>
                                        </mask>
                                        <use id="Rectangle" fill-opacity="0" fill="#E84C4C" transform="translate(45.079612, 29.912666) scale(1, -1) translate(-45.079612, -29.912666) " xlink:href="#path-3"></use>
                                        <path d="M85.6166383,83.7490404 C117.870066,83.7490404 144.016635,57.6024713 144.016635,25.3490438 C144.016635,-6.90438363 117.870066,-33.0509527 85.6166383,-33.0509527 C53.3632109,-33.0509527 27.2166418,-6.90438363 27.2166418,25.3490438 C27.2166418,57.6024713 53.3632109,83.7490404 85.6166383,83.7490404 Z" id="Oval" stroke="#EF2C44" stroke-width="12" stroke-dasharray="31.99999809265137,7.999999523162842" mask="url(#mask-4)" transform="translate(85.616638, 25.349044) rotate(12.000000) translate(-85.616638, -25.349044) "></path>
                                    </g>
                                </g>
                                <path d="M53.586625,67.235379 L54.223625,65.402379 L58.097625,65.402379 L58.734625,67.235379 L60.346625,67.235379 L57.057625,58.135379 L55.263625,58.135379 L51.961625,67.235379 L53.586625,67.235379 Z M57.603625,63.998379 L54.717625,63.998379 L56.160625,59.890379 L57.603625,63.998379 Z M62.455875,69.835379 L62.455875,66.312379 C62.949875,66.988379 63.716875,67.404379 64.730875,67.404379 C66.498875,67.404379 67.967875,65.922379 67.967875,63.985379 C67.967875,62.061379 66.498875,60.566379 64.730875,60.566379 C63.716875,60.566379 62.949875,60.982379 62.455875,61.671379 L62.455875,60.735379 L61.051875,60.735379 L61.051875,69.835379 L62.455875,69.835379 Z M64.509875,66.065379 C63.339875,66.065379 62.455875,65.194379 62.455875,63.985379 C62.455875,62.776379 63.339875,61.905379 64.509875,61.905379 C65.679875,61.905379 66.563875,62.776379 66.563875,63.985379 C66.563875,65.194379 65.679875,66.065379 64.509875,66.065379 Z M70.467125,69.835379 L70.467125,66.312379 C70.961125,66.988379 71.728125,67.404379 72.742125,67.404379 C74.510125,67.404379 75.979125,65.922379 75.979125,63.985379 C75.979125,62.061379 74.510125,60.566379 72.742125,60.566379 C71.728125,60.566379 70.961125,60.982379 70.467125,61.671379 L70.467125,60.735379 L69.063125,60.735379 L69.063125,69.835379 L70.467125,69.835379 Z M72.521125,66.065379 C71.351125,66.065379 70.467125,65.194379 70.467125,63.985379 C70.467125,62.776379 71.351125,61.905379 72.521125,61.905379 C73.691125,61.905379 74.575125,62.776379 74.575125,63.985379 C74.575125,65.194379 73.691125,66.065379 72.521125,66.065379 Z M78.478375,67.235379 L78.478375,57.745379 L77.074375,57.745379 L77.074375,67.235379 L78.478375,67.235379 Z M80.626625,59.760379 C81.120625,59.760379 81.523625,59.344379 81.523625,58.863379 C81.523625,58.369379 81.120625,57.966379 80.626625,57.966379 C80.132625,57.966379 79.729625,58.369379 79.729625,58.863379 C79.729625,59.344379 80.132625,59.760379 80.626625,59.760379 Z M81.328625,67.235379 L81.328625,60.735379 L79.924625,60.735379 L79.924625,67.235379 L81.328625,67.235379 Z M85.842875,67.404379 C87.116875,67.404379 88.221875,66.741379 88.767875,65.714379 L87.558875,65.025379 C87.246875,65.623379 86.609875,66.026379 85.829875,66.026379 C84.685875,66.026379 83.814875,65.155379 83.814875,63.985379 C83.814875,62.815379 84.685875,61.944379 85.829875,61.944379 C86.609875,61.944379 87.246875,62.334379 87.532875,62.945379 L88.741875,62.243379 C88.221875,61.229379 87.116875,60.566379 85.842875,60.566379 C83.879875,60.566379 82.410875,62.048379 82.410875,63.985379 C82.410875,65.909379 83.879875,67.404379 85.842875,67.404379 Z M92.372125,67.404379 C93.386125,67.404379 94.153125,66.988379 94.647125,66.299379 L94.647125,67.235379 L96.051125,67.235379 L96.051125,60.735379 L94.647125,60.735379 L94.647125,61.658379 C94.153125,60.982379 93.386125,60.566379 92.372125,60.566379 C90.604125,60.566379 89.135125,62.048379 89.135125,63.985379 C89.135125,65.909379 90.604125,67.404379 92.372125,67.404379 Z M92.593125,66.065379 C91.423125,66.065379 90.539125,65.194379 90.539125,63.985379 C90.539125,62.776379 91.423125,61.905379 92.593125,61.905379 C93.763125,61.905379 94.647125,62.776379 94.647125,63.985379 C94.647125,65.194379 93.763125,66.065379 92.593125,66.065379 Z M101.137375,67.235379 L101.137375,65.974379 C100.071375,66.026379 99.525375,66.039379 99.525375,65.207379 L99.525375,62.087379 L101.137375,62.087379 L101.137375,60.735379 L99.525375,60.735379 L99.525375,58.915379 L98.121375,59.331379 L98.121375,60.735379 L96.925375,60.735379 L96.925375,62.087379 L98.121375,62.087379 L98.121375,65.207379 C98.121375,66.897379 98.979375,67.495379 101.137375,67.235379 Z M102.934625,59.760379 C103.428625,59.760379 103.831625,59.344379 103.831625,58.863379 C103.831625,58.369379 103.428625,57.966379 102.934625,57.966379 C102.440625,57.966379 102.037625,58.369379 102.037625,58.863379 C102.037625,59.344379 102.440625,59.760379 102.934625,59.760379 Z M103.636625,67.235379 L103.636625,60.735379 L102.232625,60.735379 L102.232625,67.235379 L103.636625,67.235379 Z M108.150875,67.404379 C110.061875,67.404379 111.582875,65.909379 111.582875,63.985379 C111.582875,62.048379 110.061875,60.566379 108.150875,60.566379 C106.252875,60.566379 104.718875,62.048379 104.718875,63.985379 C104.718875,65.909379 106.252875,67.404379 108.150875,67.404379 Z M108.150875,66.039379 C107.006875,66.039379 106.122875,65.168379 106.122875,63.985379 C106.122875,62.802379 107.006875,61.931379 108.150875,61.931379 C109.294875,61.931379 110.178875,62.802379 110.178875,63.985379 C110.178875,65.168379 109.294875,66.039379 108.150875,66.039379 Z M114.082125,67.235379 L114.082125,63.751379 C114.082125,62.425379 114.810125,61.879379 115.733125,61.879379 C116.617125,61.879379 117.189125,62.399379 117.189125,63.387379 L117.189125,67.235379 L118.593125,67.235379 L118.593125,63.244379 C118.593125,61.554379 117.553125,60.566379 116.097125,60.566379 C115.213125,60.566379 114.511125,60.891379 114.082125,61.567379 L114.082125,60.735379 L112.678125,60.735379 L112.678125,67.235379 L114.082125,67.235379 Z M62.789,83.235379 L62.789,79.959379 C62.789,78.503379 63.868,78.074379 64.791,78.139379 L64.791,76.618379 C63.972,76.618379 63.179,76.943379 62.789,77.827379 L62.789,76.735379 L61.385,76.735379 L61.385,83.235379 L62.789,83.235379 Z M68.52525,83.404379 C69.79925,83.404379 70.77425,82.871379 71.37225,81.987379 L70.21525,81.311379 C69.90325,81.766379 69.31825,82.117379 68.53825,82.117379 C67.49825,82.117379 66.67925,81.597379 66.45825,80.583379 L71.63225,80.583379 C71.65825,80.401379 71.68425,80.193379 71.68425,79.998379 C71.68425,78.126379 70.35825,76.566379 68.42125,76.566379 C66.38025,76.566379 64.98925,78.061379 64.98925,79.985379 C64.98925,81.935379 66.38025,83.404379 68.52525,83.404379 Z M70.26725,79.439379 L66.44525,79.439379 C66.64025,78.464379 67.35525,77.840379 68.40825,77.840379 C69.25325,77.840379 70.07225,78.321379 70.26725,79.439379 Z M75.7695,83.404379 C77.0435,83.404379 78.1485,82.741379 78.6945,81.714379 L77.4855,81.025379 C77.1735,81.623379 76.5365,82.026379 75.7565,82.026379 C74.6125,82.026379 73.7415,81.155379 73.7415,79.985379 C73.7415,78.815379 74.6125,77.944379 75.7565,77.944379 C76.5365,77.944379 77.1735,78.334379 77.4595,78.945379 L78.6685,78.243379 C78.1485,77.229379 77.0435,76.566379 75.7695,76.566379 C73.8065,76.566379 72.3375,78.048379 72.3375,79.985379 C72.3375,81.909379 73.8065,83.404379 75.7695,83.404379 Z M80.23175,75.760379 C80.72575,75.760379 81.12875,75.344379 81.12875,74.863379 C81.12875,74.369379 80.72575,73.966379 80.23175,73.966379 C79.73775,73.966379 79.33475,74.369379 79.33475,74.863379 C79.33475,75.344379 79.73775,75.760379 80.23175,75.760379 Z M80.93375,83.235379 L80.93375,76.735379 L79.52975,76.735379 L79.52975,83.235379 L80.93375,83.235379 Z M85.552,83.404379 C86.826,83.404379 87.801,82.871379 88.399,81.987379 L87.242,81.311379 C86.93,81.766379 86.345,82.117379 85.565,82.117379 C84.525,82.117379 83.706,81.597379 83.485,80.583379 L88.659,80.583379 C88.685,80.401379 88.711,80.193379 88.711,79.998379 C88.711,78.126379 87.385,76.566379 85.448,76.566379 C83.407,76.566379 82.016,78.061379 82.016,79.985379 C82.016,81.935379 83.407,83.404379 85.552,83.404379 Z M87.294,79.439379 L83.472,79.439379 C83.667,78.464379 84.382,77.840379 85.435,77.840379 C86.28,77.840379 87.099,78.321379 87.294,79.439379 Z M92.91325,83.235379 L95.44825,76.735379 L93.91425,76.735379 L92.10725,81.675379 L90.28725,76.735379 L88.75325,76.735379 L91.28825,83.235379 L92.91325,83.235379 Z M99.0655,83.404379 C100.3395,83.404379 101.3145,82.871379 101.9125,81.987379 L100.7555,81.311379 C100.4435,81.766379 99.8585,82.117379 99.0785,82.117379 C98.0385,82.117379 97.2195,81.597379 96.9985,80.583379 L102.1725,80.583379 C102.1985,80.401379 102.2245,80.193379 102.2245,79.998379 C102.2245,78.126379 100.8985,76.566379 98.9615,76.566379 C96.9205,76.566379 95.5295,78.061379 95.5295,79.985379 C95.5295,81.935379 96.9205,83.404379 99.0655,83.404379 Z M100.8075,79.439379 L96.9855,79.439379 C97.1805,78.464379 97.8955,77.840379 98.9485,77.840379 C99.7935,77.840379 100.6125,78.321379 100.8075,79.439379 Z M106.11475,83.404379 C107.12875,83.404379 107.89575,82.988379 108.38975,82.299379 L108.38975,83.235379 L109.79375,83.235379 L109.79375,74.135379 L108.38975,74.135379 L108.38975,77.658379 C107.89575,76.982379 107.12875,76.566379 106.11475,76.566379 C104.34675,76.566379 102.87775,78.048379 102.87775,79.985379 C102.87775,81.909379 104.34675,83.404379 106.11475,83.404379 Z M106.33575,82.065379 C105.16575,82.065379 104.28175,81.194379 104.28175,79.985379 C104.28175,78.776379 105.16575,77.905379 106.33575,77.905379 C107.50575,77.905379 108.38975,78.776379 108.38975,79.985379 C108.38975,81.194379 107.50575,82.065379 106.33575,82.065379 Z" id="Applicationrecieved" fill="#24262B" fill-rule="nonzero"></path>
                            </g>
                        </g>
                    </g>
                </g>
            </g>
        </g>
    </g>
</svg>