<?xml version="1.0" encoding="UTF-8"?>
<svg width="158px" height="114px" viewBox="0 0 158 114" version="1.1" xmlns="http://www.w3.org/2000/svg" xmlns:xlink="http://www.w3.org/1999/xlink">
    <title>Group 21</title>
    <defs>
        <polygon id="path-1" points="37.0118548 12.951472 118.677342 12.951472 156.003037 0.349048129 128.235497 108.951466 15.7819164 108.951466 0.00304609678 3.36636196"></polygon>
    </defs>
    <g id="Page-1" stroke="none" stroke-width="1" fill="none" fill-rule="evenodd">
        <g id="4.-Applied-jobs-page" transform="translate(-1128.000000, -568.000000)">
            <g id="Group-32" transform="translate(436.000000, 551.000000)">
                <g id="Group-27">
                    <g id="Group-25" transform="translate(692.000000, 17.764621)">
                        <g id="Group-26">
                            <g id="Group-21">
                                <g id="Group-22">
                                    <g id="Group-13" transform="translate(79.003046, 56.386331) rotate(1.000000) translate(-79.003046, -56.386331) translate(1.003046, 1.886331)">
                                        <mask id="mask-2" fill="white">
                                            <use xlink:href="#path-1"></use>
                                        </mask>
                                        <use id="Rectangle" fill-opacity="0.3" fill="#FFFFFF" transform="translate(78.003041, 54.650257) scale(1, -1) translate(-78.003041, -54.650257) " xlink:href="#path-1"></use>
                                        <path d="M74.6166383,130.74904 C106.870066,130.74904 133.016635,104.602471 133.016635,72.3490438 C133.016635,40.0956164 106.870066,13.9490473 74.6166383,13.9490473 C42.3632109,13.9490473 16.2166418,40.0956164 16.2166418,72.3490438 C16.2166418,104.602471 42.3632109,130.74904 74.6166383,130.74904 Z" id="Oval" stroke="#EF2C44" stroke-width="12" stroke-dasharray="31.99999809265137,7.999999523162842" mask="url(#mask-2)" transform="translate(74.616638, 72.349044) rotate(12.000000) translate(-74.616638, -72.349044) "></path>
                                    </g>
                                </g>
                                <path d="M50.97,67.235379 L50.97,63.920379 L52.738,63.920379 L54.662,67.235379 L56.3,67.235379 L54.233,63.699379 C55.299,63.270379 56.04,62.230379 56.04,61.060379 C56.04,59.435379 54.74,58.135379 53.115,58.135379 L49.475,58.135379 L49.475,67.235379 L50.97,67.235379 Z M53.115,62.581379 L50.97,62.581379 L50.97,59.539379 L53.115,59.539379 C53.908,59.539379 54.545,60.202379 54.545,61.060379 C54.545,61.905379 53.908,62.581379 53.115,62.581379 Z M60.00825,67.404379 C61.28225,67.404379 62.25725,66.871379 62.85525,65.987379 L61.69825,65.311379 C61.38625,65.766379 60.80125,66.117379 60.02125,66.117379 C58.98125,66.117379 58.16225,65.597379 57.94125,64.583379 L63.11525,64.583379 C63.14125,64.401379 63.16725,64.193379 63.16725,63.998379 C63.16725,62.126379 61.84125,60.566379 59.90425,60.566379 C57.86325,60.566379 56.47225,62.061379 56.47225,63.985379 C56.47225,65.935379 57.86325,67.404379 60.00825,67.404379 Z M61.75025,63.439379 L57.92825,63.439379 C58.12325,62.464379 58.83825,61.840379 59.89125,61.840379 C60.73625,61.840379 61.55525,62.321379 61.75025,63.439379 Z M65.0945,59.760379 C65.5885,59.760379 65.9915,59.344379 65.9915,58.863379 C65.9915,58.369379 65.5885,57.966379 65.0945,57.966379 C64.6005,57.966379 64.1975,58.369379 64.1975,58.863379 C64.1975,59.344379 64.6005,59.760379 65.0945,59.760379 Z M65.7965,67.495379 L65.7965,60.735379 L64.3925,60.735379 L64.3925,67.495379 C64.3925,68.405379 63.9895,68.730379 63.1315,68.652379 L63.1315,70.004379 C64.9125,70.134379 65.7965,69.289379 65.7965,67.495379 Z M70.42775,67.404379 C71.70175,67.404379 72.67675,66.871379 73.27475,65.987379 L72.11775,65.311379 C71.80575,65.766379 71.22075,66.117379 70.44075,66.117379 C69.40075,66.117379 68.58175,65.597379 68.36075,64.583379 L73.53475,64.583379 C73.56075,64.401379 73.58675,64.193379 73.58675,63.998379 C73.58675,62.126379 72.26075,60.566379 70.32375,60.566379 C68.28275,60.566379 66.89175,62.061379 66.89175,63.985379 C66.89175,65.935379 68.28275,67.404379 70.42775,67.404379 Z M72.16975,63.439379 L68.34775,63.439379 C68.54275,62.464379 69.25775,61.840379 70.31075,61.840379 C71.15575,61.840379 71.97475,62.321379 72.16975,63.439379 Z M77.672,67.404379 C78.946,67.404379 80.051,66.741379 80.597,65.714379 L79.388,65.025379 C79.076,65.623379 78.439,66.026379 77.659,66.026379 C76.515,66.026379 75.644,65.155379 75.644,63.985379 C75.644,62.815379 76.515,61.944379 77.659,61.944379 C78.439,61.944379 79.076,62.334379 79.362,62.945379 L80.571,62.243379 C80.051,61.229379 78.946,60.566379 77.672,60.566379 C75.709,60.566379 74.24,62.048379 74.24,63.985379 C74.24,65.909379 75.709,67.404379 77.672,67.404379 Z M85.05925,67.235379 L85.05925,65.974379 C83.99325,66.026379 83.44725,66.039379 83.44725,65.207379 L83.44725,62.087379 L85.05925,62.087379 L85.05925,60.735379 L83.44725,60.735379 L83.44725,58.915379 L82.04325,59.331379 L82.04325,60.735379 L80.84725,60.735379 L80.84725,62.087379 L82.04325,62.087379 L82.04325,65.207379 C82.04325,66.897379 82.90125,67.495379 85.05925,67.235379 Z M89.0665,67.404379 C90.3405,67.404379 91.3155,66.871379 91.9135,65.987379 L90.7565,65.311379 C90.4445,65.766379 89.8595,66.117379 89.0795,66.117379 C88.0395,66.117379 87.2205,65.597379 86.9995,64.583379 L92.1735,64.583379 C92.1995,64.401379 92.2255,64.193379 92.2255,63.998379 C92.2255,62.126379 90.8995,60.566379 88.9625,60.566379 C86.9215,60.566379 85.5305,62.061379 85.5305,63.985379 C85.5305,65.935379 86.9215,67.404379 89.0665,67.404379 Z M90.8085,63.439379 L86.9865,63.439379 C87.1815,62.464379 87.8965,61.840379 88.9495,61.840379 C89.7945,61.840379 90.6135,62.321379 90.8085,63.439379 Z M96.11575,67.404379 C97.12975,67.404379 97.89675,66.988379 98.39075,66.299379 L98.39075,67.235379 L99.79475,67.235379 L99.79475,58.135379 L98.39075,58.135379 L98.39075,61.658379 C97.89675,60.982379 97.12975,60.566379 96.11575,60.566379 C94.34775,60.566379 92.87875,62.048379 92.87875,63.985379 C92.87875,65.909379 94.34775,67.404379 96.11575,67.404379 Z M96.33675,66.065379 C95.16675,66.065379 94.28275,65.194379 94.28275,63.985379 C94.28275,62.776379 95.16675,61.905379 96.33675,61.905379 C97.50675,61.905379 98.39075,62.776379 98.39075,63.985379 C98.39075,65.194379 97.50675,66.065379 96.33675,66.065379 Z" id="Rejected" fill="#24262B" fill-rule="nonzero"></path>
                            </g>
                        </g>
                    </g>
                </g>
            </g>
        </g>
    </g>
</svg>