<svg xmlns="http://www.w3.org/2000/svg" width="19.001" height="19.001" viewBox="0 0 19.001 19.001">
  <path id="Subtraction_276" data-name="Subtraction 276" d="M14766.835-423h-12.666a3.171,3.171,0,0,1-3.17-3.166v-7.128h1.583v6.335a.794.794,0,0,0,.793.793.8.8,0,0,0,.794-.793V-442H14770v15.835A3.169,3.169,0,0,1,14766.835-423Zm-8.711-4.752a.793.793,0,0,0-.79.793.793.793,0,0,0,.79.793h7.917a.8.8,0,0,0,.794-.793.8.8,0,0,0-.794-.793Zm0-3.166a.793.793,0,0,0-.79.793.791.791,0,0,0,.79.79h7.917a.793.793,0,0,0,.794-.79.8.8,0,0,0-.794-.793Zm-.79-7.918h0v5.542h9.5v-5.542Z" transform="translate(-14750.999 442)" fill="#ee5050"/>
</svg>
