<?xml version="1.0" encoding="UTF-8"?>
<svg width="165px" height="113px" viewBox="0 0 165 113" version="1.1" xmlns="http://www.w3.org/2000/svg" xmlns:xlink="http://www.w3.org/1999/xlink">
    <title>Group 17</title>
    <defs>
        <polygon id="path-1" points="37.0118548 12.951472 118.677342 12.951472 156.003037 0.349048129 128.235497 108.951466 15.7819164 108.951466 0.00304609678 3.36636196"></polygon>
        <path d="M44.0118548,9.65515978 L85.5789755,18.1601801 L28.5624757,99.2768879 C35.2017454,102.011344 30.7032875,96.213564 15.067102,81.8835489 C-0.569083483,67.5535339 -3.25710212,40.2823675 7.0030461,0.070049735 L44.0118548,9.65515978 Z" id="path-3"></path>
    </defs>
    <g id="Page-1" stroke="none" stroke-width="1" fill="none" fill-rule="evenodd">
        <g id="Group-17">
            <g id="Group-22">
                <g id="Group-13" transform="translate(86.003046, 56.386331) rotate(1.000000) translate(-86.003046, -56.386331) translate(8.003046, 1.886331)">
                    <mask id="mask-2" fill="white">
                        <use xlink:href="#path-1"></use>
                    </mask>
                    <use id="Rectangle" fill-opacity="0.3" fill="#FFFFFF" transform="translate(78.003041, 54.650257) scale(1, -1) translate(-78.003041, -54.650257) " xlink:href="#path-1"></use>
                    <path d="M74.6166383,130.74904 C106.870066,130.74904 133.016635,104.602471 133.016635,72.3490438 C133.016635,40.0956164 106.870066,13.9490473 74.6166383,13.9490473 C42.3632109,13.9490473 16.2166418,40.0956164 16.2166418,72.3490438 C16.2166418,104.602471 42.3632109,130.74904 74.6166383,130.74904 Z" id="Oval" stroke="#979797" stroke-width="12" opacity="0.300000012" stroke-dasharray="31.99999809265137,7.999999523162842" mask="url(#mask-2)" transform="translate(74.616638, 72.349044) rotate(12.000000) translate(-74.616638, -72.349044) "></path>
                </g>
                <g id="Group-13" transform="translate(43.983264, 57.153101) rotate(1.000000) translate(-43.983264, -57.153101) translate(0.983264, 7.153101)">
                    <mask id="mask-4" fill="white">
                        <use xlink:href="#path-3"></use>
                    </mask>
                    <use id="Rectangle" fill-opacity="0" fill="#E84C4C" transform="translate(43.242202, 50.002101) scale(1, -1) translate(-43.242202, -50.002101) " xlink:href="#path-3"></use>
                    <path d="M81.6166383,124.74904 C113.870066,124.74904 140.016635,98.6024713 140.016635,66.3490438 C140.016635,34.0956164 113.870066,7.94904732 81.6166383,7.94904732 C49.3632109,7.94904732 23.2166418,34.0956164 23.2166418,66.3490438 C23.2166418,98.6024713 49.3632109,124.74904 81.6166383,124.74904 Z" id="Oval" stroke="#F5A623" stroke-width="12" stroke-dasharray="31.99999809265137,7.999999523162842" mask="url(#mask-4)" transform="translate(81.616638, 66.349044) rotate(12.000000) translate(-81.616638, -66.349044) "></path>
                </g>
            </g>
            <path d="M49.586625,67.235379 L50.223625,65.402379 L54.097625,65.402379 L54.734625,67.235379 L56.346625,67.235379 L53.057625,58.135379 L51.263625,58.135379 L47.961625,67.235379 L49.586625,67.235379 Z M53.603625,63.998379 L50.717625,63.998379 L52.160625,59.890379 L53.603625,63.998379 Z M58.455875,69.835379 L58.455875,66.312379 C58.949875,66.988379 59.716875,67.404379 60.730875,67.404379 C62.498875,67.404379 63.967875,65.922379 63.967875,63.985379 C63.967875,62.061379 62.498875,60.566379 60.730875,60.566379 C59.716875,60.566379 58.949875,60.982379 58.455875,61.671379 L58.455875,60.735379 L57.051875,60.735379 L57.051875,69.835379 L58.455875,69.835379 Z M60.509875,66.065379 C59.339875,66.065379 58.455875,65.194379 58.455875,63.985379 C58.455875,62.776379 59.339875,61.905379 60.509875,61.905379 C61.679875,61.905379 62.563875,62.776379 62.563875,63.985379 C62.563875,65.194379 61.679875,66.065379 60.509875,66.065379 Z M66.467125,69.835379 L66.467125,66.312379 C66.961125,66.988379 67.728125,67.404379 68.742125,67.404379 C70.510125,67.404379 71.979125,65.922379 71.979125,63.985379 C71.979125,62.061379 70.510125,60.566379 68.742125,60.566379 C67.728125,60.566379 66.961125,60.982379 66.467125,61.671379 L66.467125,60.735379 L65.063125,60.735379 L65.063125,69.835379 L66.467125,69.835379 Z M68.521125,66.065379 C67.351125,66.065379 66.467125,65.194379 66.467125,63.985379 C66.467125,62.776379 67.351125,61.905379 68.521125,61.905379 C69.691125,61.905379 70.575125,62.776379 70.575125,63.985379 C70.575125,65.194379 69.691125,66.065379 68.521125,66.065379 Z M74.478375,67.235379 L74.478375,57.745379 L73.074375,57.745379 L73.074375,67.235379 L74.478375,67.235379 Z M76.626625,59.760379 C77.120625,59.760379 77.523625,59.344379 77.523625,58.863379 C77.523625,58.369379 77.120625,57.966379 76.626625,57.966379 C76.132625,57.966379 75.729625,58.369379 75.729625,58.863379 C75.729625,59.344379 76.132625,59.760379 76.626625,59.760379 Z M77.328625,67.235379 L77.328625,60.735379 L75.924625,60.735379 L75.924625,67.235379 L77.328625,67.235379 Z M81.842875,67.404379 C83.116875,67.404379 84.221875,66.741379 84.767875,65.714379 L83.558875,65.025379 C83.246875,65.623379 82.609875,66.026379 81.829875,66.026379 C80.685875,66.026379 79.814875,65.155379 79.814875,63.985379 C79.814875,62.815379 80.685875,61.944379 81.829875,61.944379 C82.609875,61.944379 83.246875,62.334379 83.532875,62.945379 L84.741875,62.243379 C84.221875,61.229379 83.116875,60.566379 81.842875,60.566379 C79.879875,60.566379 78.410875,62.048379 78.410875,63.985379 C78.410875,65.909379 79.879875,67.404379 81.842875,67.404379 Z M88.372125,67.404379 C89.386125,67.404379 90.153125,66.988379 90.647125,66.299379 L90.647125,67.235379 L92.051125,67.235379 L92.051125,60.735379 L90.647125,60.735379 L90.647125,61.658379 C90.153125,60.982379 89.386125,60.566379 88.372125,60.566379 C86.604125,60.566379 85.135125,62.048379 85.135125,63.985379 C85.135125,65.909379 86.604125,67.404379 88.372125,67.404379 Z M88.593125,66.065379 C87.423125,66.065379 86.539125,65.194379 86.539125,63.985379 C86.539125,62.776379 87.423125,61.905379 88.593125,61.905379 C89.763125,61.905379 90.647125,62.776379 90.647125,63.985379 C90.647125,65.194379 89.763125,66.065379 88.593125,66.065379 Z M97.137375,67.235379 L97.137375,65.974379 C96.071375,66.026379 95.525375,66.039379 95.525375,65.207379 L95.525375,62.087379 L97.137375,62.087379 L97.137375,60.735379 L95.525375,60.735379 L95.525375,58.915379 L94.121375,59.331379 L94.121375,60.735379 L92.925375,60.735379 L92.925375,62.087379 L94.121375,62.087379 L94.121375,65.207379 C94.121375,66.897379 94.979375,67.495379 97.137375,67.235379 Z M98.934625,59.760379 C99.428625,59.760379 99.831625,59.344379 99.831625,58.863379 C99.831625,58.369379 99.428625,57.966379 98.934625,57.966379 C98.440625,57.966379 98.037625,58.369379 98.037625,58.863379 C98.037625,59.344379 98.440625,59.760379 98.934625,59.760379 Z M99.636625,67.235379 L99.636625,60.735379 L98.232625,60.735379 L98.232625,67.235379 L99.636625,67.235379 Z M104.150875,67.404379 C106.061875,67.404379 107.582875,65.909379 107.582875,63.985379 C107.582875,62.048379 106.061875,60.566379 104.150875,60.566379 C102.252875,60.566379 100.718875,62.048379 100.718875,63.985379 C100.718875,65.909379 102.252875,67.404379 104.150875,67.404379 Z M104.150875,66.039379 C103.006875,66.039379 102.122875,65.168379 102.122875,63.985379 C102.122875,62.802379 103.006875,61.931379 104.150875,61.931379 C105.294875,61.931379 106.178875,62.802379 106.178875,63.985379 C106.178875,65.168379 105.294875,66.039379 104.150875,66.039379 Z M110.082125,67.235379 L110.082125,63.751379 C110.082125,62.425379 110.810125,61.879379 111.733125,61.879379 C112.617125,61.879379 113.189125,62.399379 113.189125,63.387379 L113.189125,67.235379 L114.593125,67.235379 L114.593125,63.244379 C114.593125,61.554379 113.553125,60.566379 112.097125,60.566379 C111.213125,60.566379 110.511125,60.891379 110.082125,61.567379 L110.082125,60.735379 L108.678125,60.735379 L108.678125,67.235379 L110.082125,67.235379 Z M47.297,83.404379 C48.181,83.404379 48.883,83.079379 49.312,82.403379 L49.312,83.235379 L50.716,83.235379 L50.716,76.735379 L49.312,76.735379 L49.312,80.219379 C49.312,81.545379 48.584,82.091379 47.661,82.091379 C46.777,82.091379 46.205,81.571379 46.205,80.583379 L46.205,76.735379 L44.801,76.735379 L44.801,80.726379 C44.801,82.416379 45.841,83.404379 47.297,83.404379 Z M53.57925,83.235379 L53.57925,79.751379 C53.57925,78.425379 54.30725,77.879379 55.23025,77.879379 C56.11425,77.879379 56.68625,78.399379 56.68625,79.387379 L56.68625,83.235379 L58.09025,83.235379 L58.09025,79.244379 C58.09025,77.554379 57.05025,76.566379 55.59425,76.566379 C54.71025,76.566379 54.00825,76.891379 53.57925,77.567379 L53.57925,76.735379 L52.17525,76.735379 L52.17525,83.235379 L53.57925,83.235379 Z M62.2925,83.404379 C63.3065,83.404379 64.0735,82.988379 64.5675,82.299379 L64.5675,83.235379 L65.9715,83.235379 L65.9715,74.135379 L64.5675,74.135379 L64.5675,77.658379 C64.0735,76.982379 63.3065,76.566379 62.2925,76.566379 C60.5245,76.566379 59.0555,78.048379 59.0555,79.985379 C59.0555,81.909379 60.5245,83.404379 62.2925,83.404379 Z M62.5135,82.065379 C61.3435,82.065379 60.4595,81.194379 60.4595,79.985379 C60.4595,78.776379 61.3435,77.905379 62.5135,77.905379 C63.6835,77.905379 64.5675,78.776379 64.5675,79.985379 C64.5675,81.194379 63.6835,82.065379 62.5135,82.065379 Z M70.60275,83.404379 C71.87675,83.404379 72.85175,82.871379 73.44975,81.987379 L72.29275,81.311379 C71.98075,81.766379 71.39575,82.117379 70.61575,82.117379 C69.57575,82.117379 68.75675,81.597379 68.53575,80.583379 L73.70975,80.583379 C73.73575,80.401379 73.76175,80.193379 73.76175,79.998379 C73.76175,78.126379 72.43575,76.566379 70.49875,76.566379 C68.45775,76.566379 67.06675,78.061379 67.06675,79.985379 C67.06675,81.935379 68.45775,83.404379 70.60275,83.404379 Z M72.34475,79.439379 L68.52275,79.439379 C68.71775,78.464379 69.43275,77.840379 70.48575,77.840379 C71.33075,77.840379 72.14975,78.321379 72.34475,79.439379 Z M76.222,83.235379 L76.222,79.959379 C76.222,78.503379 77.301,78.074379 78.224,78.139379 L78.224,76.618379 C77.405,76.618379 76.612,76.943379 76.222,77.827379 L76.222,76.735379 L74.818,76.735379 L74.818,83.235379 L76.222,83.235379 Z M83.5605,83.235379 L83.5605,79.959379 C83.5605,78.503379 84.6395,78.074379 85.5625,78.139379 L85.5625,76.618379 C84.7435,76.618379 83.9505,76.943379 83.5605,77.827379 L83.5605,76.735379 L82.1565,76.735379 L82.1565,83.235379 L83.5605,83.235379 Z M89.29675,83.404379 C90.57075,83.404379 91.54575,82.871379 92.14375,81.987379 L90.98675,81.311379 C90.67475,81.766379 90.08975,82.117379 89.30975,82.117379 C88.26975,82.117379 87.45075,81.597379 87.22975,80.583379 L92.40375,80.583379 C92.42975,80.401379 92.45575,80.193379 92.45575,79.998379 C92.45575,78.126379 91.12975,76.566379 89.19275,76.566379 C87.15175,76.566379 85.76075,78.061379 85.76075,79.985379 C85.76075,81.935379 87.15175,83.404379 89.29675,83.404379 Z M91.03875,79.439379 L87.21675,79.439379 C87.41175,78.464379 88.12675,77.840379 89.17975,77.840379 C90.02475,77.840379 90.84375,78.321379 91.03875,79.439379 Z M96.658,83.235379 L99.193,76.735379 L97.659,76.735379 L95.852,81.675379 L94.032,76.735379 L92.498,76.735379 L95.033,83.235379 L96.658,83.235379 Z M100.60025,75.760379 C101.09425,75.760379 101.49725,75.344379 101.49725,74.863379 C101.49725,74.369379 101.09425,73.966379 100.60025,73.966379 C100.10625,73.966379 99.70325,74.369379 99.70325,74.863379 C99.70325,75.344379 100.10625,75.760379 100.60025,75.760379 Z M101.30225,83.235379 L101.30225,76.735379 L99.89825,76.735379 L99.89825,83.235379 L101.30225,83.235379 Z M105.9205,83.404379 C107.1945,83.404379 108.1695,82.871379 108.7675,81.987379 L107.6105,81.311379 C107.2985,81.766379 106.7135,82.117379 105.9335,82.117379 C104.8935,82.117379 104.0745,81.597379 103.8535,80.583379 L109.0275,80.583379 C109.0535,80.401379 109.0795,80.193379 109.0795,79.998379 C109.0795,78.126379 107.7535,76.566379 105.8165,76.566379 C103.7755,76.566379 102.3845,78.061379 102.3845,79.985379 C102.3845,81.935379 103.7755,83.404379 105.9205,83.404379 Z M107.6625,79.439379 L103.8405,79.439379 C104.0355,78.464379 104.7505,77.840379 105.8035,77.840379 C106.6485,77.840379 107.4675,78.321379 107.6625,79.439379 Z M112.70975,83.235379 L114.07475,78.854379 L115.42675,83.235379 L116.80475,83.235379 L118.84575,76.735379 L117.36375,76.735379 L116.08975,81.220379 L114.73775,76.735379 L113.39875,76.735379 L112.03375,81.220379 L110.77275,76.735379 L109.29075,76.735379 L111.33175,83.235379 L112.70975,83.235379 Z" id="Applicationunderreview" fill="#24262B" fill-rule="nonzero"></path>
        </g>
    </g>
</svg>