<svg xmlns="http://www.w3.org/2000/svg" width="40" height="40" viewBox="0 0 40 40">
  <g id="Group_345" data-name="Group 345" transform="translate(-458 -211)">
    <circle id="Oval" cx="20" cy="20" r="20" transform="translate(458 211)" fill="#ee5050" opacity="0.1"/>
    <path id="users" d="M17,16H12.75V13.363a4.8,4.8,0,0,0-2.09-3.834,7.158,7.158,0,0,1,1.027-.075c2.929,0,5.313,1.753,5.313,3.909V16Zm-5.666,0H0V13.363c0-2.155,2.542-3.909,5.666-3.909s5.667,1.753,5.667,3.909V16Zm.725-8h-.016A3.455,3.455,0,0,1,9.7,7.07a5.543,5.543,0,0,0,.288-5.657,3.467,3.467,0,0,1,4.163.018A3.683,3.683,0,0,1,15.421,5.5,3.545,3.545,0,0,1,12.058,8ZM5.313,8a3.961,3.961,0,0,1-3.9-4,3.953,3.953,0,0,1,3.9-4,3.953,3.953,0,0,1,3.9,4A3.953,3.953,0,0,1,5.313,8Z" transform="translate(470 223)" fill="#ee5050"/>
  </g>
</svg>
