<?xml version="1.0" encoding="UTF-8"?>
<svg width="165px" height="122px" viewBox="0 0 165 122" version="1.1" xmlns="http://www.w3.org/2000/svg" xmlns:xlink="http://www.w3.org/1999/xlink">
    <title>Group 17</title>
    <defs>
        <polygon id="path-1" points="37.0118548 12.951472 118.677342 12.951472 156.003037 0.349048129 128.235497 108.951466 15.7819164 108.951466 0.00304609678 3.36636196"></polygon>
        <path d="M44.0118548,10.4506485 L85.5789755,18.9556688 L159.991028,59.0237183 C127.452195,94.5485681 102.092518,113.092425 83.9119977,114.655289 C45.5326334,117.954519 24.2080849,91.0564276 15.067102,82.6790376 C-0.569083484,68.3490226 -3.25710212,41.0778562 7.0030461,0.865538409 L44.0118548,10.4506485 Z" id="path-3"></path>
    </defs>
    <g id="Page-1" stroke="none" stroke-width="1" fill="none" fill-rule="evenodd">
        <g id="Group-17">
            <g id="Group-22">
                <g id="Group-13" transform="translate(86.003046, 65.386331) rotate(1.000000) translate(-86.003046, -65.386331) translate(8.003046, 10.886331)">
                    <mask id="mask-2" fill="white">
                        <use xlink:href="#path-1"></use>
                    </mask>
                    <use id="Rectangle" fill-opacity="0.3" fill="#FFFFFF" transform="translate(78.003041, 54.650257) scale(1, -1) translate(-78.003041, -54.650257) " xlink:href="#path-1"></use>
                    <path d="M74.6166383,130.74904 C106.870066,130.74904 133.016635,104.602471 133.016635,72.3490438 C133.016635,40.0956164 106.870066,13.9490473 74.6166383,13.9490473 C42.3632109,13.9490473 16.2166418,40.0956164 16.2166418,72.3490438 C16.2166418,104.602471 42.3632109,130.74904 74.6166383,130.74904 Z" id="Oval" stroke="#979797" stroke-width="12" opacity="0.300000012" stroke-dasharray="31.99999809265137,7.999999523162842" mask="url(#mask-2)" transform="translate(74.616638, 72.349044) rotate(12.000000) translate(-74.616638, -72.349044) "></path>
                </g>
                <g id="Group-13" transform="translate(81.108522, 59.299983) rotate(1.000000) translate(-81.108522, -59.299983) translate(1.108522, 1.799983)">
                    <mask id="mask-4" fill="white">
                        <use xlink:href="#path-3"></use>
                    </mask>
                    <use id="Rectangle" fill-opacity="0" fill="#E84C4C" transform="translate(80.448228, 57.899845) scale(1, -1) translate(-80.448228, -57.899845) " xlink:href="#path-3"></use>
                    <path d="M81.6166383,139.74904 C113.870066,139.74904 140.016635,113.602471 140.016635,81.3490438 C140.016635,49.0956164 113.870066,22.9490473 81.6166383,22.9490473 C49.3632109,22.9490473 23.2166418,49.0956164 23.2166418,81.3490438 C23.2166418,113.602471 49.3632109,139.74904 81.6166383,139.74904 Z" id="Oval" stroke="#F5A623" stroke-width="12" stroke-dasharray="31.99999809265137,7.999999523162842" mask="url(#mask-4)" transform="translate(81.616638, 81.349044) rotate(12.000000) translate(-81.616638, -81.349044) "></path>
                </g>
            </g>
            <path d="M53.863625,76.235379 L55.800625,69.592379 L57.724625,76.235379 L59.453625,76.235379 L62.027625,67.135379 L60.454625,67.135379 L58.543625,74.246379 L56.489625,67.135379 L55.111625,67.135379 L53.044625,74.246379 L51.133625,67.135379 L49.560625,67.135379 L52.134625,76.235379 L53.863625,76.235379 Z M65.020875,76.404379 C66.034875,76.404379 66.801875,75.988379 67.295875,75.299379 L67.295875,76.235379 L68.699875,76.235379 L68.699875,69.735379 L67.295875,69.735379 L67.295875,70.658379 C66.801875,69.982379 66.034875,69.566379 65.020875,69.566379 C63.252875,69.566379 61.783875,71.048379 61.783875,72.985379 C61.783875,74.909379 63.252875,76.404379 65.020875,76.404379 Z M65.241875,75.065379 C64.071875,75.065379 63.187875,74.194379 63.187875,72.985379 C63.187875,71.776379 64.071875,70.905379 65.241875,70.905379 C66.411875,70.905379 67.295875,71.776379 67.295875,72.985379 C67.295875,74.194379 66.411875,75.065379 65.241875,75.065379 Z M70.861125,68.760379 C71.355125,68.760379 71.758125,68.344379 71.758125,67.863379 C71.758125,67.369379 71.355125,66.966379 70.861125,66.966379 C70.367125,66.966379 69.964125,67.369379 69.964125,67.863379 C69.964125,68.344379 70.367125,68.760379 70.861125,68.760379 Z M71.563125,76.235379 L71.563125,69.735379 L70.159125,69.735379 L70.159125,76.235379 L71.563125,76.235379 Z M76.636375,76.235379 L76.636375,74.974379 C75.570375,75.026379 75.024375,75.039379 75.024375,74.207379 L75.024375,71.087379 L76.636375,71.087379 L76.636375,69.735379 L75.024375,69.735379 L75.024375,67.915379 L73.620375,68.331379 L73.620375,69.735379 L72.424375,69.735379 L72.424375,71.087379 L73.620375,71.087379 L73.620375,74.207379 C73.620375,75.897379 74.478375,76.495379 76.636375,76.235379 Z M78.433625,68.760379 C78.927625,68.760379 79.330625,68.344379 79.330625,67.863379 C79.330625,67.369379 78.927625,66.966379 78.433625,66.966379 C77.939625,66.966379 77.536625,67.369379 77.536625,67.863379 C77.536625,68.344379 77.939625,68.760379 78.433625,68.760379 Z M79.135625,76.235379 L79.135625,69.735379 L77.731625,69.735379 L77.731625,76.235379 L79.135625,76.235379 Z M81.985875,76.235379 L81.985875,72.751379 C81.985875,71.425379 82.713875,70.879379 83.636875,70.879379 C84.520875,70.879379 85.092875,71.399379 85.092875,72.387379 L85.092875,76.235379 L86.496875,76.235379 L86.496875,72.244379 C86.496875,70.554379 85.456875,69.566379 84.000875,69.566379 C83.116875,69.566379 82.414875,69.891379 81.985875,70.567379 L81.985875,69.735379 L80.581875,69.735379 L80.581875,76.235379 L81.985875,76.235379 Z M91.037125,79.004379 C92.740125,79.004379 94.378125,78.029379 94.378125,75.936379 L94.378125,69.735379 L93.000125,69.735379 L93.000125,70.697379 C92.506125,69.995379 91.739125,69.566379 90.738125,69.566379 C88.905125,69.566379 87.462125,71.061379 87.462125,72.920379 C87.462125,74.779379 88.905125,76.274379 90.738125,76.274379 C91.739125,76.274379 92.506125,75.845379 93.000125,75.143379 L93.000125,75.936379 C93.000125,77.067379 92.272125,77.730379 91.063125,77.730379 C89.932125,77.730379 89.451125,77.288379 89.165125,76.729379 L87.956125,77.431379 C88.502125,78.471379 89.607125,79.004379 91.037125,79.004379 Z M90.933125,74.961379 C89.750125,74.961379 88.866125,74.090379 88.866125,72.920379 C88.866125,71.750379 89.750125,70.879379 90.933125,70.879379 C92.116125,70.879379 93.000125,71.750379 93.000125,72.920379 C93.000125,74.090379 92.116125,74.961379 90.933125,74.961379 Z M100.780625,76.235379 L100.780625,71.087379 L102.314625,71.087379 L102.314625,69.735379 L100.780625,69.735379 L100.780625,69.605379 C100.780625,68.604379 101.326625,68.227379 102.314625,68.318379 L102.314625,66.966379 C100.364625,66.836379 99.376625,67.850379 99.376625,69.605379 L99.376625,69.735379 L98.388625,69.735379 L98.388625,71.087379 L99.376625,71.087379 L99.376625,76.235379 L100.780625,76.235379 Z M105.723875,76.404379 C107.634875,76.404379 109.155875,74.909379 109.155875,72.985379 C109.155875,71.048379 107.634875,69.566379 105.723875,69.566379 C103.825875,69.566379 102.291875,71.048379 102.291875,72.985379 C102.291875,74.909379 103.825875,76.404379 105.723875,76.404379 Z M105.723875,75.039379 C104.579875,75.039379 103.695875,74.168379 103.695875,72.985379 C103.695875,71.802379 104.579875,70.931379 105.723875,70.931379 C106.867875,70.931379 107.751875,71.802379 107.751875,72.985379 C107.751875,74.168379 106.867875,75.039379 105.723875,75.039379 Z M111.655125,76.235379 L111.655125,72.959379 C111.655125,71.503379 112.734125,71.074379 113.657125,71.139379 L113.657125,69.618379 C112.838125,69.618379 112.045125,69.943379 111.655125,70.827379 L111.655125,69.735379 L110.251125,69.735379 L110.251125,76.235379 L111.655125,76.235379 Z M58.8995,92.404379 C59.9135,92.404379 60.6805,91.988379 61.1745,91.299379 L61.1745,92.235379 L62.5785,92.235379 L62.5785,85.735379 L61.1745,85.735379 L61.1745,86.658379 C60.6805,85.982379 59.9135,85.566379 58.8995,85.566379 C57.1315,85.566379 55.6625,87.048379 55.6625,88.985379 C55.6625,90.909379 57.1315,92.404379 58.8995,92.404379 Z M59.1205,91.065379 C57.9505,91.065379 57.0665,90.194379 57.0665,88.985379 C57.0665,87.776379 57.9505,86.905379 59.1205,86.905379 C60.2905,86.905379 61.1745,87.776379 61.1745,88.985379 C61.1745,90.194379 60.2905,91.065379 59.1205,91.065379 Z M65.44175,94.835379 L65.44175,91.312379 C65.93575,91.988379 66.70275,92.404379 67.71675,92.404379 C69.48475,92.404379 70.95375,90.922379 70.95375,88.985379 C70.95375,87.061379 69.48475,85.566379 67.71675,85.566379 C66.70275,85.566379 65.93575,85.982379 65.44175,86.671379 L65.44175,85.735379 L64.03775,85.735379 L64.03775,94.835379 L65.44175,94.835379 Z M67.49575,91.065379 C66.32575,91.065379 65.44175,90.194379 65.44175,88.985379 C65.44175,87.776379 66.32575,86.905379 67.49575,86.905379 C68.66575,86.905379 69.54975,87.776379 69.54975,88.985379 C69.54975,90.194379 68.66575,91.065379 67.49575,91.065379 Z M73.453,94.835379 L73.453,91.312379 C73.947,91.988379 74.714,92.404379 75.728,92.404379 C77.496,92.404379 78.965,90.922379 78.965,88.985379 C78.965,87.061379 77.496,85.566379 75.728,85.566379 C74.714,85.566379 73.947,85.982379 73.453,86.671379 L73.453,85.735379 L72.049,85.735379 L72.049,94.835379 L73.453,94.835379 Z M75.507,91.065379 C74.337,91.065379 73.453,90.194379 73.453,88.985379 C73.453,87.776379 74.337,86.905379 75.507,86.905379 C76.677,86.905379 77.561,87.776379 77.561,88.985379 C77.561,90.194379 76.677,91.065379 75.507,91.065379 Z M81.46425,92.235379 L81.46425,88.959379 C81.46425,87.503379 82.54325,87.074379 83.46625,87.139379 L83.46625,85.618379 C82.64725,85.618379 81.85425,85.943379 81.46425,86.827379 L81.46425,85.735379 L80.06025,85.735379 L80.06025,92.235379 L81.46425,92.235379 Z M87.0965,92.404379 C89.0075,92.404379 90.5285,90.909379 90.5285,88.985379 C90.5285,87.048379 89.0075,85.566379 87.0965,85.566379 C85.1985,85.566379 83.6645,87.048379 83.6645,88.985379 C83.6645,90.909379 85.1985,92.404379 87.0965,92.404379 Z M87.0965,91.039379 C85.9525,91.039379 85.0685,90.168379 85.0685,88.985379 C85.0685,87.802379 85.9525,86.931379 87.0965,86.931379 C88.2405,86.931379 89.1245,87.802379 89.1245,88.985379 C89.1245,90.168379 88.2405,91.039379 87.0965,91.039379 Z M94.76975,92.235379 L97.30475,85.735379 L95.77075,85.735379 L93.96375,90.675379 L92.14375,85.735379 L90.60975,85.735379 L93.14475,92.235379 L94.76975,92.235379 Z M100.623,92.404379 C101.637,92.404379 102.404,91.988379 102.898,91.299379 L102.898,92.235379 L104.302,92.235379 L104.302,85.735379 L102.898,85.735379 L102.898,86.658379 C102.404,85.982379 101.637,85.566379 100.623,85.566379 C98.855,85.566379 97.386,87.048379 97.386,88.985379 C97.386,90.909379 98.855,92.404379 100.623,92.404379 Z M100.844,91.065379 C99.674,91.065379 98.79,90.194379 98.79,88.985379 C98.79,87.776379 99.674,86.905379 100.844,86.905379 C102.014,86.905379 102.898,87.776379 102.898,88.985379 C102.898,90.194379 102.014,91.065379 100.844,91.065379 Z M107.16525,92.235379 L107.16525,82.745379 L105.76125,82.745379 L105.76125,92.235379 L107.16525,92.235379 Z" id="Waitingforapproval" fill="#24262B" fill-rule="nonzero"></path>
        </g>
    </g>
</svg>