<svg xmlns="http://www.w3.org/2000/svg" width="17" height="17.002" viewBox="0 0 17 17.002"><defs><style>.a{fill:#ee5050;}</style></defs><path class="a" d="M1.417,17A1.417,1.417,0,0,1,0,15.583V8.9l7.016,3.239a3.539,3.539,0,0,0,2.968,0L17,8.9v6.685A1.417,1.417,0,0,1,15.583,17ZM7.608,10.85,0,7.338V5.668A1.42,1.42,0,0,1,1.416,4.252H4.25V2.123A2.134,2.134,0,0,1,6.373,0h4.25a2.142,2.142,0,0,1,2.129,2.125V4.252h2.834A1.418,1.418,0,0,1,17,5.668v1.67L9.389,10.85a2.066,2.066,0,0,1-.889.2A2.146,2.146,0,0,1,7.608,10.85ZM5.664,2.128V4.252h5.668V2.128a.71.71,0,0,0-.709-.71H6.373A.71.71,0,0,0,5.664,2.128Z" transform="translate(0 0.002)"/></svg>