<svg xmlns="http://www.w3.org/2000/svg" width="17.998" height="17.999" viewBox="0 0 17.998 17.999"><defs><style>.a{fill:#ee5050;}</style></defs><path class="a" d="M1.5,18a1.53,1.53,0,0,1-1.065-.436A1.492,1.492,0,0,1,0,16.5V8.25H18V16.5a1.521,1.521,0,0,1-.441,1.063A1.5,1.5,0,0,1,16.5,18Zm9-2.251h5.251V10.5H10.5Zm7.5-9H0V3A1.491,1.491,0,0,1,.437,1.94,1.518,1.518,0,0,1,1.5,1.5H3.748V.748a.752.752,0,0,1,1.5,0V1.5h7.5V.748a.75.75,0,0,1,1.5,0V1.5H16.5a1.49,1.49,0,0,1,1.059.44A1.518,1.518,0,0,1,18,3v3.75h0ZM12.75,4.5a.75.75,0,1,0,.752-.748A.751.751,0,0,0,12.75,4.5Zm-9,0A.752.752,0,1,0,4.5,3.751.752.752,0,0,0,3.748,4.5Z" transform="translate(-0.002)"/></svg>