<svg id="Group_25" data-name="Group 25" xmlns="http://www.w3.org/2000/svg" width="40" height="40" viewBox="0 0 40 40">
  <circle id="Oval" cx="20" cy="20" r="20" fill="#ee5050" opacity="0.1"/>
  <path id="money-circle" d="M9.5,19A9.5,9.5,0,1,1,19,9.5,9.511,9.511,0,0,1,9.5,19ZM7.52,11.875a.792.792,0,0,0,0,1.584H8.708v.791a.792.792,0,1,0,1.583,0v-.806a2.37,2.37,0,1,0,0-4.74c-.049,0-.1,0-.149,0h-1.3a.8.8,0,1,1,0-1.583h2.231a.792.792,0,0,0,0-1.584h-.792V4.75a.792.792,0,1,0-1.583,0v.806a2.37,2.37,0,1,0,0,4.74c.049,0,.1,0,.149,0h1.3a.814.814,0,0,1,.133-.011.8.8,0,1,1-.133,1.594Z" transform="translate(11 11)" fill="#ee5050"/>
</svg>
