<svg xmlns="http://www.w3.org/2000/svg" width="19.001" height="19.001" viewBox="0 0 19.001 19.001"><defs><style>.a{fill:#ee5050;}</style></defs><g transform="translate(-59 -1094)"><path class="a" d="M9.976,13.034l-.565.055L5.7,13.451l-1.913.186.184-1.913L4.323,8l.054-.566.4-.4L11.59.224h0L11.814,0H1.583A1.583,1.583,0,0,0,0,1.583v14.25a1.583,1.583,0,0,0,1.583,1.583H14.25a1.583,1.583,0,0,0,1.583-1.583V7.177l-5.456,5.456Z" transform="translate(59 1095.584)"/><path class="a" d="M4.471.7A2.376,2.376,0,0,0,1.112.7L0,1.808,3.359,5.166l1.12-1.12A2.366,2.366,0,0,0,4.471.7Z" transform="translate(72.83 1094)"/><path class="a" d="M.357,6.811,0,10.531l3.716-.362,6.811-6.811L7.168,0Z" transform="translate(64.541 1096.928)"/></g></svg>