<svg xmlns="http://www.w3.org/2000/svg" width="14" height="14" viewBox="0 0 14 14"><defs><style>.a{fill:#ee5050;}</style></defs><path class="a" d="M1.308,12.693a4.463,4.463,0,0,1,0-6.313L3.227,4.461,4.464,5.7,2.545,7.618a2.714,2.714,0,0,0,3.838,3.838L8.3,9.536l1.238,1.238L7.619,12.693a4.462,4.462,0,0,1-6.312,0ZM4.341,9.66a.875.875,0,0,1,0-1.238L8.424,4.338A.875.875,0,1,1,9.661,5.576L5.578,9.66a.875.875,0,0,1-1.238,0ZM9.538,8.3,11.457,6.38A2.714,2.714,0,0,0,7.619,2.543L5.7,4.461,4.464,3.224,6.383,1.305a4.463,4.463,0,1,1,6.312,6.313L10.776,9.536Z" transform="translate(0 0)"/></svg>