<svg id="Group_26" data-name="Group 26" xmlns="http://www.w3.org/2000/svg" width="40" height="40" viewBox="0 0 40 40">
  <circle id="Oval" cx="20" cy="20" r="20" fill="#ee5050" opacity="0.1"/>
  <path id="memo-money" d="M14.4,19H1.6A1.594,1.594,0,0,1,0,17.417V3.167a1.563,1.563,0,0,1,.469-1.12A1.618,1.618,0,0,1,1.6,1.583H3.2V.792a.8.8,0,0,1,1.6,0v.791H7.2V.792a.8.8,0,0,1,1.6,0v.791h2.4V.792a.8.8,0,0,1,1.6,0v.791h1.6a1.618,1.618,0,0,1,1.131.464A1.566,1.566,0,0,1,16,3.167v14.25A1.594,1.594,0,0,1,14.4,19ZM4,14.25a.792.792,0,1,0,0,1.584h8a.792.792,0,1,0,0-1.584ZM6.4,9.5a.792.792,0,1,0,0,1.583h.8v.4a.8.8,0,0,0,1.6,0v-.437a1.977,1.977,0,0,0-.4-3.918H7.6a.4.4,0,1,1,0-.792H9.2a.792.792,0,1,0,0-1.583H8.8v-.4a.8.8,0,0,0-1.6,0V4.79a1.978,1.978,0,0,0,.4,3.919h.8a.4.4,0,1,1,0,.792Z" transform="translate(12 11)" fill="#ee5050"/>
</svg>
