<svg xmlns="http://www.w3.org/2000/svg" width="17" height="17" viewBox="0 0 17 17"><defs><style>.a{fill:#ee5050;}</style></defs><g transform="translate(-59 -970)"><path class="a" d="M2.419,2.42a1.417,1.417,0,1,0-1,.415A1.418,1.418,0,0,0,2.419,2.42Z" transform="translate(66.08 977.08)"/><path class="a" d="M4.957,9.918A4.96,4.96,0,1,0,3.654.173a1.063,1.063,0,0,0,.558,2.052A2.833,2.833,0,0,1,6.961,6.961a2.9,2.9,0,0,1-4.007,0,2.843,2.843,0,0,1-.728-2.75A1.063,1.063,0,1,0,.175,3.654,4.958,4.958,0,0,0,4.957,9.918Z" transform="translate(62.541 973.541)"/><path class="a" d="M14.509,2.484A8.521,8.521,0,0,0,6.263.3,1.063,1.063,0,0,0,6.82,2.349,6.379,6.379,0,1,1,2.351,6.82,1.063,1.063,0,1,0,.3,6.262,8.5,8.5,0,1,0,14.509,2.484Z" transform="translate(59 970)"/></g></svg>