<svg xmlns="http://www.w3.org/2000/svg" width="17" height="15" viewBox="0 0 17 15"><defs><style>.a{fill:#ee5050;}</style></defs><path class="a" d="M12.75,15V12.528a4.434,4.434,0,0,0-2.09-3.594,7.68,7.68,0,0,1,1.027-.071c2.93,0,5.313,1.644,5.313,3.665V15ZM0,15V12.528c0-2.02,2.542-3.665,5.666-3.665s5.667,1.644,5.667,3.665V15ZM12.042,7.5A3.59,3.59,0,0,1,9.7,6.628a4.942,4.942,0,0,0,.288-5.3,3.654,3.654,0,0,1,4.163.018,3.337,3.337,0,0,1,1.269,3.817A3.53,3.53,0,0,1,12.059,7.5ZM1.417,3.75A3.825,3.825,0,0,1,5.313,0a3.825,3.825,0,0,1,3.9,3.75A3.824,3.824,0,0,1,5.313,7.5,3.829,3.829,0,0,1,1.417,3.75Z"/></svg>