<svg xmlns="http://www.w3.org/2000/svg" width="113.335" height="41.908" viewBox="0 0 113.335 41.908"><defs><style>.a{fill:#c00001;}</style></defs><g transform="translate(-59.963 -19.457)"><g transform="translate(109.631 19.457)"><path class="a" d="M-1073.743,367.776c-1.431,0-2.753,1.08-2.753,3.293,0,1.862.918,3.455,2.672,3.455,1.539,0,2.78-1.188,2.78-3.347C-1071.043,369.153-1072.15,367.776-1073.743,367.776Z" transform="translate(1103.054 -350.269)"/><path class="a" d="M-1146.92,367.776c-1.458,0-2.726,1.188-2.726,3.32,0,2.078,1.107,3.428,2.726,3.428,1.4,0,2.726-1.026,2.726-3.428C-1144.193,369.422-1145.084,367.776-1146.92,367.776Z" transform="translate(1159.543 -350.269)"/><path class="a" d="M-1172.147,290.911a20.954,20.954,0,0,0-20.954,20.954,20.954,20.954,0,0,0,20.954,20.954,20.954,20.954,0,0,0,20.954-20.954A20.954,20.954,0,0,0-1172.147,290.911Zm-1.07,26.307a1.327,1.327,0,0,1-1.484,1.485h-1.4c-.972,0-1.485-.459-1.485-1.35v-.162a1.513,1.513,0,0,1,.027-.189h-.054a4.642,4.642,0,0,1-4.022,2.025c-3.779,0-6.262-2.969-6.262-7.288,0-4.4,2.645-7.261,6.343-7.261,2.807,0,3.644,1.377,3.644,1.377h.054s-.027-.27-.027-.621v-4.346a1.327,1.327,0,0,1,1.484-1.485h1.7a1.327,1.327,0,0,1,1.484,1.485Zm10.426,1.809a4.372,4.372,0,0,1-3.968-1.944h-.054a1.227,1.227,0,0,1,.027.27v.108c0,.729-.513,1.242-1.484,1.242h-1.323a1.327,1.327,0,0,1-1.484-1.485V300.887a1.327,1.327,0,0,1,1.484-1.485h1.7a1.327,1.327,0,0,1,1.484,1.485v4.157c0,.7-.054,1.188-.054,1.188h.054a4.811,4.811,0,0,1,3.833-1.755c3.644,0,6.181,2.969,6.181,7.207C-1156.393,316.165-1159.2,319.026-1162.791,319.026Z" transform="translate(1193.101 -290.911)"/></g><path class="a" d="M-997.084,335.213a1.327,1.327,0,0,1,1.485-1.485h1.7a1.327,1.327,0,0,1,1.485,1.485v10.932a1.327,1.327,0,0,1-1.485,1.485h-1.7a1.327,1.327,0,0,1-1.485-1.485Zm.054-4.724v-.675a1.327,1.327,0,0,1,1.485-1.485h1.593a1.327,1.327,0,0,1,1.484,1.485v.675a1.327,1.327,0,0,1-1.484,1.485h-1.593A1.327,1.327,0,0,1-997.03,330.489Z" transform="translate(1151.359 -300.35)"/><path class="a" d="M-969.626,364.783a2.278,2.278,0,0,1,.648-1.646l4.454-5.561a8.835,8.835,0,0,1,1.215-1.268v-.054a9.218,9.218,0,0,1-1.215.054h-3.4a1.327,1.327,0,0,1-1.485-1.485v-.945a1.327,1.327,0,0,1,1.485-1.485h9.447c.972,0,1.484.4,1.484,1.161v.351a2.279,2.279,0,0,1-.648,1.646l-4.427,5.588a8.138,8.138,0,0,1-1.242,1.269v.054a6.4,6.4,0,0,1,1.242-.081h3.725a1.327,1.327,0,0,1,1.485,1.484v.945a1.327,1.327,0,0,1-1.485,1.485h-9.8c-.972,0-1.485-.405-1.485-1.161Z" transform="translate(1130.156 -318.934)"/><path class="a" d="M-1410.7,325.034l1.049-1.523c.677-.981,1.455-1.049,2.572-.44a8.77,8.77,0,0,0,4.4,1.489c1.76,0,2.572-.744,2.572-1.692,0-3.418-10.694-2.876-10.694-10.457,0-4.467,3.723-7.411,8.629-7.411a12.457,12.457,0,0,1,6.531,1.794,1.776,1.776,0,0,1,.575,2.538l-.812,1.59c-.677,1.32-1.591,1.117-2.538.643a8.206,8.206,0,0,0-3.824-1.117c-1.861,0-2.639.745-2.639,1.692,0,3.52,10.694,2.673,10.694,10.321,0,4.061-3.046,7.546-8.494,7.546a13.512,13.512,0,0,1-7.682-2.4A1.644,1.644,0,0,1-1410.7,325.034Z" transform="translate(1471.133 -282.334)"/><path class="a" d="M-1323.738,350.609c4.13,0,6.424,2.915,6.424,6.64a1.6,1.6,0,0,1-1.566,1.539h-7.315a3.1,3.1,0,0,0,3.239,2.483,5.779,5.779,0,0,0,2.537-.648c.891-.4,1.539-.3,2,.567l.378.7a1.364,1.364,0,0,1-.513,2.025,9.7,9.7,0,0,1-4.778,1.242,7.209,7.209,0,0,1-7.639-7.288A6.92,6.92,0,0,1-1323.738,350.609Zm1.808,5.507a1.931,1.931,0,0,0-1.917-2.078,2.283,2.283,0,0,0-2.24,2.078Z" transform="translate(1409.199 -317.555)"/><path class="a" d="M-1265.526,352.418a1.327,1.327,0,0,1,1.485-1.485h1.512a1.308,1.308,0,0,1,1.458,1.485v.243c0,.135-.027.351-.027.351h.054a4.9,4.9,0,0,1,4.427-2.4c2.807,0,4.994,1.3,4.994,5.21v7.531a1.327,1.327,0,0,1-1.485,1.485h-1.7a1.327,1.327,0,0,1-1.485-1.485v-6.667c0-1.3-.513-1.835-1.539-1.835-2.079,0-3.023,1.727-3.023,3.7v4.8a1.327,1.327,0,0,1-1.484,1.485h-1.7a1.327,1.327,0,0,1-1.485-1.485Z" transform="translate(1358.66 -317.555)"/></g></svg>